<svg width="109" height="73" viewBox="0 0 109 73" fill="none" xmlns="http://www.w3.org/2000/svg">
<path d="M39.4814 11.0934V27.8289L47.9023 32.2185V22.3418L54.1144 25.6341L60.6026 22.3418V32.2185L69.0235 27.8289V11.0934L54.1144 3L39.4814 11.0934Z" stroke="url(#paint0_linear_49_1223)" stroke-width="3.58922"/>
<path d="M42.9802 52.2144V42.4958H41.4065L35.6637 50.4335L29.8933 42.4958H28.1815V52.2144H29.8795V45.4224L34.8354 52.2144H36.3401L41.2822 45.4086V52.2144H42.9802ZM55.4617 52.2144V50.7787H47.3031V47.7968H55.0476V46.3612H47.3031V43.9315H55.4617V42.4958H45.4671V52.2144H55.4617ZM64.0608 52.2144V43.9315H69.0167V42.4958H57.1309V43.9315H62.2248V52.2144H64.0608ZM81.712 52.2144L75.2928 42.4958H73.9537L67.4931 52.2144H69.5362L74.6302 44.3871L79.6413 52.2144H81.712Z" fill="#D9D9D9"/>
<path d="M15.8372 69.2144V59.4958H14.2635L8.52072 67.4335L2.75036 59.4958H1.03857V69.2144H2.73655V62.4224L7.69244 69.2144H9.19715L14.1392 62.4086V69.2144H15.8372ZM31.6457 69.2144L25.2265 59.4958H23.8874L17.4268 69.2144H19.4699L24.5638 61.3871L29.575 69.2144H31.6457ZM44.4326 69.2144L42.141 64.8521C43.8666 64.6864 44.543 63.7891 44.543 62.5329V61.8426C44.543 60.4484 43.7009 59.4958 41.4922 59.4958H33.237V69.2144H35.073V64.8797H40.1945L42.4723 69.2144H44.4326ZM42.707 62.5467C42.707 63.1265 42.3205 63.444 41.4922 63.444H35.073V60.9315H41.4922C42.3205 60.9315 42.707 61.249 42.707 61.8288V62.5467ZM57.4888 69.2144L53.1818 64.0238L57.5026 59.4958H55.3215L51.6632 63.444H48.5434V59.4958H46.7073V69.2144H48.5434V64.8797H51.7047L55.3767 69.2144H57.4888ZM69.2556 69.2144V67.7787H61.097V64.7968H68.8415V63.3612H61.097V60.9315H69.2556V59.4958H59.261V69.2144H69.2556ZM77.8548 69.2144V60.9315H82.8107V59.4958H70.9248V60.9315H76.0187V69.2144H77.8548ZM94.7269 69.2144V67.7787H86.5683V64.7968H94.3128V63.3612H86.5683V60.9315H94.7269V59.4958H84.7323V69.2144H94.7269ZM108.172 69.2144L105.88 64.8521C107.606 64.6864 108.282 63.7891 108.282 62.5329V61.8426C108.282 60.4484 107.44 59.4958 105.231 59.4958H96.9759V69.2144H98.8119V64.8797H103.933L106.211 69.2144H108.172ZM106.446 62.5467C106.446 63.1265 106.059 63.444 105.231 63.444H98.8119V60.9315H105.231C106.059 60.9315 106.446 61.249 106.446 61.8288V62.5467Z" fill="white"/>
<defs>
<linearGradient id="paint0_linear_49_1223" x1="31" y1="18" x2="75" y2="18" gradientUnits="userSpaceOnUse">
<stop stop-color="#AC4A9D"/>
<stop offset="1" stop-color="#1DB5D6"/>
</linearGradient>
</defs>
</svg>
