<svg width="148" height="147" viewBox="0 0 148 147" fill="none" xmlns="http://www.w3.org/2000/svg">
<path d="M58.7016 10.6866C58.2041 11.4328 57.4578 11.9303 56.4628 12.1791C55.5921 12.4279 54.7215 12.4279 53.9752 12.0547C53.229 11.6816 52.7314 11.1841 52.3583 10.5622L53.4777 9.94029C53.7265 10.4378 54.0996 10.9353 54.5971 11.1841C55.219 11.4328 55.7165 11.5572 56.3384 11.3085C57.4578 10.9353 58.0797 10.0647 57.8309 9.06964C57.5822 8.07462 56.8359 7.95024 55.0946 7.95024C52.9802 8.07462 51.8608 7.45273 51.4877 6.20895C51.2389 5.46268 51.3633 4.71641 51.8608 4.09452C52.3583 3.34825 52.9802 2.97512 53.8508 2.72636C54.7215 2.47761 55.4678 2.47761 56.214 2.72636C56.9603 2.97512 57.4578 3.47263 57.7066 3.97014L56.5872 4.59203C56.3384 4.2189 55.9653 3.84577 55.4678 3.59701C54.9702 3.34825 54.4727 3.34825 53.9752 3.47263C52.9802 3.72139 52.3583 4.59203 52.6071 5.46268C52.7314 5.83581 52.9802 6.08457 53.3533 6.20895C53.7265 6.33333 54.3484 6.33333 55.0946 6.33333C57.4578 6.20895 58.4528 6.83084 58.9503 8.32338C59.3235 9.19402 59.1991 9.94029 58.7016 10.6866Z" fill="white"/>
<path d="M61.1891 2.35325C61.9354 1.23385 63.0548 0.611955 64.2986 0.487576C65.418 0.363198 66.6618 0.611954 67.7812 1.23384L67.1593 2.35325C66.2886 1.60698 65.418 1.23385 64.5473 1.35822C63.6767 1.4826 62.9304 1.98011 62.4329 2.85076C61.9354 3.72141 61.811 4.71643 61.9354 5.83583C62.0598 6.95524 62.5573 7.82588 63.3035 8.57215C64.0498 9.31842 64.7961 9.56718 65.6667 9.4428C66.5374 9.31842 67.408 8.82091 68.2787 7.82588L68.9006 8.3234C68.0299 9.4428 66.9105 10.1891 65.5423 10.3134C64.2986 10.4378 63.0548 10.1891 62.0598 9.4428C61.0647 8.69653 60.4428 7.57713 60.1941 6.20897C60.0697 4.71643 60.3185 3.47265 61.1891 2.35325Z" fill="white"/>
<path d="M78.229 9.56718H76.1146L72.2589 5.4627L72.3832 9.69156H70.642L70.5176 0.114441H73.8758C74.8708 0.114441 75.7415 0.363197 76.3634 0.860709C76.9852 1.35822 77.3584 2.10449 77.3584 2.85076C77.3584 3.59703 77.1096 4.21892 76.6121 4.71643C76.1146 5.21394 75.3683 5.58708 74.6221 5.58708L78.229 9.56718ZM72.1345 0.860709L72.2589 4.96519H73.5027C74.7464 4.96519 75.6171 4.21892 75.6171 2.85076C75.6171 1.4826 74.6221 0.860709 73.5027 0.860709H72.1345Z" fill="white"/>
<path d="M86.6867 9.44279C85.5673 10.3134 84.3235 10.5622 83.0797 10.3134C81.8359 10.0647 80.5921 9.44279 79.8459 8.44777C78.9752 7.32836 78.7265 6.08458 78.9752 4.8408C79.224 3.47264 79.8459 2.35324 80.8409 1.60697C81.9603 0.736323 83.2041 0.487567 84.4478 0.736323C85.6916 0.98508 86.9354 1.60697 87.6817 2.602C88.5523 3.7214 88.8011 4.96518 88.5523 6.20896C88.4279 7.57712 87.8061 8.57214 86.6867 9.44279ZM86.4379 2.97513C85.9404 2.10448 85.3185 1.60697 84.3235 1.48259C83.4528 1.35821 82.7066 1.60697 81.9603 2.35324C81.214 3.09951 80.8409 3.97015 80.5921 5.08956C80.3434 6.20896 80.5921 7.20399 81.0896 8.07463C81.5872 8.94528 82.209 9.44279 83.2041 9.56717C84.0747 9.69155 84.821 9.44279 85.5672 8.69652C86.3135 7.95025 86.6867 7.07961 86.9354 5.9602C87.0598 4.8408 86.9354 3.84578 86.4379 2.97513Z" fill="white"/>
<path d="M95.2686 13.1742L89.4229 11.4329L92.1592 2.22888L93.7761 2.72639L91.2885 11.1841L95.6418 12.3035L95.2686 13.1742Z" fill="white"/>
<path d="M102.11 16.0349L96.5127 13.6717L100.244 4.84082L101.737 5.46271L98.254 13.5473L102.358 15.1642L102.11 16.0349Z" fill="white"/>
<path d="M116.538 14.6667L112.931 12.1791L110.941 15.0398L114.423 17.403L113.926 18.1493L110.443 15.7861L107.955 19.5174L106.463 18.5224L111.811 10.5622L116.911 13.9204L116.538 14.6667Z" fill="white"/>
<path d="M119.647 26.9801C118.279 27.1045 117.16 26.607 116.04 25.7363C114.921 24.8657 114.423 23.7463 114.423 22.3781C114.299 21.01 114.796 19.8905 115.667 18.7711C116.538 17.7761 117.657 17.1542 119.025 17.1542C120.393 17.0299 121.513 17.5274 122.632 18.398C123.627 19.2687 124.249 20.3881 124.249 21.7562C124.373 23.1244 123.876 24.2438 123.005 25.3632C122.135 26.3582 121.015 26.9801 119.647 26.9801ZM123.005 21.5075C123.13 20.5124 122.757 19.7662 122.135 19.1443C121.513 18.5224 120.642 18.398 119.647 18.5224C118.652 18.6468 117.781 19.2687 117.035 20.0149C116.289 20.8856 115.916 21.7562 115.791 22.7512C115.791 23.7463 116.04 24.4925 116.662 25.1144C117.284 25.7363 118.155 25.8607 119.15 25.7363C120.145 25.6119 121.015 24.9901 121.762 24.2438C122.508 23.3731 122.881 22.5025 123.005 21.5075Z" fill="white"/>
<path d="M125.742 36.0597L124.374 34.4428L125.12 28.8458L121.886 31.4577L120.767 30.2139L128.229 24.1194L130.344 26.7313C130.966 27.4776 131.339 28.3482 131.214 29.2189C131.214 30.0895 130.841 30.7114 130.219 31.3333C129.722 31.8308 128.976 31.9552 128.229 31.8308C127.483 31.7065 126.861 31.4577 126.239 30.8358L125.742 36.0597ZM128.602 25.8607L125.493 28.4726L126.239 29.4676C126.986 30.3383 128.105 30.7114 129.1 29.8408C130.095 28.9701 130.095 27.8507 129.349 26.8557L128.602 25.8607Z" fill="white"/>
<path d="M133.453 50.1145L132.582 48.3732L137.557 43.5224L130.343 44.3931L130.094 43.8956L134.945 38.5473L128.104 39.6667L127.607 38.6717L137.682 37.1791L137.93 37.6767L132.955 43.0249L140.169 42.1543L140.418 42.6518L133.453 50.1145Z" fill="white"/>
<path d="M137.06 58.199C135.816 57.5771 135.07 56.5821 134.697 55.214C134.324 53.8458 134.448 52.602 135.07 51.4826C135.692 50.2388 136.687 49.4926 138.055 49.1194C139.423 48.7463 140.667 48.8707 141.786 49.4926C143.03 50.1145 143.776 51.1095 144.149 52.4776C144.523 53.8458 144.398 55.0896 143.776 56.209C143.154 57.4528 142.159 58.199 140.791 58.5722C139.547 58.9453 138.304 58.8209 137.06 58.199ZM142.781 55.214C143.403 54.3433 143.528 53.597 143.279 52.7264C143.03 51.8558 142.408 51.2339 141.537 50.8607C140.667 50.4876 139.547 50.4876 138.552 50.7364C137.433 51.1095 136.687 51.607 136.065 52.4776C135.443 53.3483 135.319 54.0946 135.567 54.9652C135.816 55.8359 136.438 56.4577 137.309 56.8309C138.304 57.204 139.299 57.204 140.294 56.9553C141.413 56.5821 142.284 55.9602 142.781 55.214Z" fill="white"/>
<path d="M137.433 69.0199L137.184 66.9055L140.791 62.5523L136.687 63.0498L136.438 61.4329L146.015 60.1891L146.513 63.5473C146.637 64.5423 146.513 65.413 146.015 66.1592C145.518 66.9055 144.896 67.2786 144.149 67.403C143.403 67.5274 142.781 67.2786 142.159 66.7811C141.537 66.2836 141.164 65.6617 141.04 64.9155L137.433 69.0199ZM145.269 61.9304L141.289 62.4279L141.413 63.6717C141.537 64.9155 142.408 65.6617 143.652 65.5373C144.896 65.413 145.518 64.2936 145.393 63.1742L145.269 61.9304Z" fill="white"/>
<path d="M137.433 75.8607L137.309 69.7662L146.886 69.6418L147.01 75.7363H146.015V71.2587H142.532L142.657 75.4876H141.786V71.2587H138.179L138.304 75.7363L137.433 75.8607Z" fill="white"/>
<path d="M138.055 77.8508C138.553 77.8508 138.926 78.3483 138.926 78.8458C138.926 79.3433 138.428 79.7164 137.931 79.5921C137.433 79.5921 137.06 79.0946 137.06 78.597C137.06 78.0995 137.433 77.8508 138.055 77.8508Z" fill="white"/>
<path d="M135.567 90.7861C135.194 90.0398 135.07 89.0448 135.318 88.1741C135.567 87.3035 135.94 86.5572 136.687 86.0597C137.308 85.5622 138.055 85.3134 138.801 85.4378V86.6816C138.303 86.5572 137.682 86.6816 137.184 87.0547C136.687 87.4279 136.313 87.9254 136.189 88.4229C135.94 89.5423 136.438 90.6617 137.433 90.9105C138.303 91.1592 138.925 90.6617 139.672 89.0448C140.667 87.1791 141.662 86.5572 143.03 86.806C143.776 87.0547 144.398 87.4279 144.647 88.1741C145.02 88.9204 145.02 89.7911 144.896 90.6617C144.647 91.5323 144.274 92.1542 143.652 92.6517C143.03 93.1493 142.408 93.398 141.786 93.2736V92.0299C142.284 92.0299 142.657 91.9055 143.154 91.5323C143.527 91.1592 143.9 90.7861 144.025 90.2886C144.274 89.2935 143.9 88.4229 143.03 88.1741C142.657 88.0498 142.284 88.1741 142.035 88.4229C141.786 88.6716 141.413 89.1692 141.04 89.9154C139.92 92.0299 138.925 92.6518 137.308 92.2786C136.562 92.1542 135.94 91.6567 135.567 90.7861Z" fill="white"/>
<path d="M141.538 97.005C142.035 98.2488 142.16 99.4926 141.662 100.612C141.165 101.731 140.418 102.602 139.299 103.348L138.677 102.229C139.796 101.856 140.543 101.234 140.791 100.488C141.165 99.6169 141.04 98.7463 140.543 97.8757C140.045 97.005 139.299 96.3831 138.18 96.01C137.06 95.6369 136.065 95.5125 135.194 95.7612C134.199 96.01 133.578 96.6319 133.329 97.3781C132.956 98.2488 133.08 99.2438 133.453 100.488L132.707 100.736C132.085 99.3682 132.085 98.1244 132.583 96.7563C133.08 95.5125 133.951 94.6418 135.07 94.1443C136.314 93.6468 137.558 93.6468 138.801 94.1443C140.17 95.015 141.04 95.8856 141.538 97.005Z" fill="white"/>
<path d="M126.861 108.323L127.98 106.458L133.453 105.214L129.846 103.1L130.717 101.607L139.05 106.333L137.433 109.318C136.935 110.189 136.314 110.811 135.443 111.06C134.697 111.308 133.95 111.308 133.204 110.935C132.582 110.562 132.209 110.065 131.96 109.318C131.836 108.572 131.836 107.826 132.209 107.08L126.861 108.323ZM137.309 107.453L133.826 105.463L133.204 106.582C132.582 107.577 132.707 108.821 133.95 109.443C135.194 110.065 136.189 109.692 136.811 108.572L137.309 107.453Z" fill="white"/>
<path d="M122.632 115.662C122.508 114.294 122.756 113.05 123.627 112.055C124.498 111.06 125.617 110.313 126.861 110.189C128.229 110.065 129.473 110.313 130.468 111.184C131.587 112.055 132.209 113.174 132.334 114.418C132.458 115.662 132.209 117.03 131.339 118.025C130.468 119.144 129.349 119.766 128.105 119.891C126.737 120.015 125.493 119.766 124.498 118.896C123.503 118.149 122.881 117.03 122.632 115.662ZM128.478 118.647C129.473 118.647 130.219 118.274 130.841 117.652C131.463 117.03 131.587 116.159 131.339 115.164C131.09 114.169 130.592 113.423 129.597 112.677C128.727 111.93 127.732 111.557 126.737 111.557C125.742 111.557 124.995 111.93 124.373 112.552C123.751 113.174 123.627 114.045 123.876 115.04C124.125 116.035 124.622 116.781 125.617 117.527C126.612 118.274 127.483 118.647 128.478 118.647Z" fill="white"/>
<path d="M115.169 121.259L119.647 117.03L126.239 123.995L124.995 125.114L118.901 118.771L115.916 121.881L115.169 121.259Z" fill="white"/>
<path d="M109.324 125.736L114.174 122.005L120.02 129.716L118.652 130.711L113.428 123.746L109.946 126.483L109.324 125.736Z" fill="white"/>
<path d="M103.229 138.92L107.209 137.055L105.717 133.945L101.985 135.811L101.612 134.94L105.344 133.075L103.354 129.095L104.846 128.348L109.199 136.93L103.727 139.667L103.229 138.92Z" fill="white"/>
<path d="M91.0401 135.438C91.662 134.194 92.657 133.448 93.9008 132.95C95.1446 132.577 96.5128 132.577 97.6322 133.199C98.8759 133.821 99.6222 134.816 100.12 136.06C100.493 137.304 100.493 138.672 99.871 139.791C99.2491 141.035 98.2541 141.781 97.0103 142.279C95.7665 142.652 94.3983 142.652 93.2789 142.03C92.0351 141.408 91.2889 140.413 90.7914 139.169C90.2939 137.925 90.4182 136.682 91.0401 135.438ZM94.1496 141.159C95.0202 141.781 95.7665 141.905 96.6371 141.532C97.5078 141.284 98.0053 140.662 98.3784 139.667C98.7516 138.672 98.7516 137.677 98.3784 136.682C98.0053 135.687 97.3834 134.816 96.6371 134.194C95.7665 133.697 95.0202 133.448 94.1496 133.821C93.2789 134.07 92.7814 134.692 92.4083 135.687C92.0351 136.682 92.0351 137.677 92.4083 138.672C92.7814 139.667 93.4033 140.537 94.1496 141.159Z" fill="white"/>
<path d="M80.2192 136.184L82.3337 135.811L86.8113 139.294L86.065 135.189L87.6819 134.94L89.2988 144.393L85.9406 145.015C84.9456 145.139 84.075 145.015 83.3287 144.642C82.5824 144.269 82.2093 143.647 82.0849 142.776C81.9605 142.03 82.0849 141.408 82.5824 140.786C83.0799 140.164 83.7018 139.791 84.4481 139.542L80.2192 136.184ZM87.5575 143.896L86.9356 139.915L85.6919 140.164C84.4481 140.413 83.7018 141.284 83.9506 142.527C84.1993 143.771 85.1944 144.393 86.4381 144.144L87.5575 143.896Z" fill="white"/>
<path d="M64.0498 135.935L65.9155 136.06L67.6568 142.776L70.5175 136.184H71.015L73.1294 143.149L75.617 136.557H76.7364L73.005 146.134H72.3831L70.1443 139.169L67.2836 145.886H66.6617L64.0498 135.935Z" fill="white"/>
<path d="M55.3435 135.065C56.4629 134.318 57.7067 134.194 59.0749 134.443C60.443 134.692 61.438 135.562 62.1843 136.682C62.9306 137.801 63.055 139.045 62.8062 140.413C62.4331 141.781 61.6868 142.776 60.5674 143.522C59.448 144.269 58.2042 144.393 56.8361 144.144C55.4679 143.771 54.4729 143.025 53.7266 141.905C52.9803 140.786 52.856 139.542 53.1047 138.174C53.3535 136.682 54.0997 135.687 55.3435 135.065ZM54.9704 141.532C55.3435 142.403 55.9654 143.025 56.8361 143.274C57.7067 143.522 58.453 143.274 59.3236 142.652C60.0699 142.03 60.5674 141.159 60.9405 140.04C61.1893 138.92 61.1893 137.925 60.6918 137.055C60.3186 136.184 59.6967 135.562 58.8261 135.438C57.9555 135.189 57.2092 135.438 56.3385 136.06C55.5923 136.682 55.0948 137.552 54.7216 138.672C54.4729 139.542 54.5972 140.537 54.9704 141.532Z" fill="white"/>
<path d="M45.7664 129.965L47.7564 130.711L49.7465 136.06L51.3634 132.204L52.9803 132.826L49.3733 141.781L46.2639 140.537C45.3932 140.164 44.647 139.542 44.2738 138.796C43.9007 138.05 43.9007 137.304 44.1494 136.557C44.3982 135.935 44.8957 135.438 45.642 135.189C46.3882 134.94 47.0101 134.94 47.8808 135.189L45.7664 129.965ZM48.0052 140.289L49.4977 136.557L48.3783 136.06C47.2589 135.562 46.1395 135.935 45.642 137.179C45.1445 138.423 45.7664 139.418 46.8858 139.915L48.0052 140.289Z" fill="white"/>
<path d="M39.7962 126.483L45.1444 129.468L40.4181 137.801L35.0698 134.816L35.5673 133.945L39.4231 136.184L41.1644 133.199L37.433 131.085L37.9305 130.338L41.6619 132.453L43.4032 129.343L39.5474 127.229L39.7962 126.483Z" fill="white"/>
<path d="M37.806 125.985C37.5573 126.483 36.9354 126.483 36.5623 126.234C36.1891 125.985 36.0647 125.363 36.3135 124.99C36.5623 124.617 37.1841 124.493 37.5573 124.741C38.0548 124.99 38.1792 125.612 37.806 125.985Z" fill="white"/>
<path d="M27.7315 117.403C28.6022 117.527 29.4728 117.901 30.0947 118.522C30.841 119.144 31.2141 119.891 31.3385 120.761C31.4629 121.632 31.2141 122.254 30.841 122.876L29.7216 122.254C30.0947 121.881 30.2191 121.259 30.2191 120.637C30.2191 120.015 29.9704 119.517 29.4728 119.02C28.6022 118.149 27.4828 118.149 26.7365 118.896C26.1146 119.517 26.239 120.264 27.234 121.756C28.3534 123.498 28.4778 124.741 27.4828 125.736C26.9853 126.358 26.239 126.607 25.4927 126.483C24.6221 126.358 23.8758 126.109 23.2539 125.363C22.632 124.741 22.2589 124.119 22.1345 123.373C22.0102 122.627 22.1345 122.005 22.5077 121.507L23.6271 122.129C23.3783 122.503 23.2539 123 23.3783 123.498C23.5027 123.995 23.6271 124.493 24.0002 124.866C24.7465 125.612 25.7415 125.612 26.3634 124.99C26.6121 124.741 26.7365 124.368 26.6121 123.995C26.4878 123.622 26.239 123.124 25.8659 122.378C24.6221 120.388 24.6221 119.144 25.7415 118.025C26.239 117.652 26.8609 117.403 27.7315 117.403Z" fill="white"/>
<path d="M19.398 119.517C18.0299 119.393 17.0348 118.771 16.1642 117.776C15.4179 116.781 15.0448 115.662 14.9204 114.418H16.1642C16.0398 115.537 16.1642 116.532 16.6617 117.154C17.2836 117.9 18.0299 118.274 19.0249 118.149C20.0199 118.149 21.0149 117.776 21.8856 117.03C22.7562 116.284 23.3781 115.537 23.6269 114.542C23.8756 113.547 23.7513 112.801 23.1294 112.055C22.5075 111.308 21.6368 110.811 20.393 110.562L20.5174 109.816C22.01 109.94 23.1294 110.562 24 111.682C24.7463 112.677 25.1194 113.796 24.995 115.164C24.8707 116.408 24.2488 117.527 23.1294 118.398C22.01 119.269 20.7662 119.642 19.398 119.517Z" fill="white"/>
<path d="M17.0352 101.109L18.1546 102.975L16.4133 108.323L20.0203 106.209L20.8909 107.702L12.5576 112.552L10.8163 109.692C10.3188 108.821 10.07 107.95 10.3188 107.204C10.4432 106.333 10.9407 105.711 11.5626 105.338C12.1845 104.965 12.8063 104.841 13.5526 105.09C14.2989 105.338 14.7964 105.711 15.2939 106.458L17.0352 101.109ZM12.4332 110.687L15.9158 108.697L15.2939 107.577C14.672 106.582 13.5526 106.085 12.4332 106.707C11.3138 107.328 11.1894 108.572 11.8113 109.567L12.4332 110.687Z" fill="white"/>
<path d="M12.6816 93.8956C13.9254 94.3931 14.796 95.3881 15.2936 96.6319C15.7911 97.8757 15.7911 99.1194 15.2936 100.363C14.796 101.607 13.801 102.478 12.5572 102.975C11.3135 103.473 10.0697 103.473 8.8259 102.975C7.58211 102.478 6.71147 101.483 6.21395 100.239C5.71644 98.9951 5.71644 97.7513 6.21395 96.5075C6.71147 95.2637 7.70649 94.3931 8.95027 93.8956C10.1941 93.2737 11.4378 93.2737 12.6816 93.8956ZM7.20898 97.3781C6.71147 98.2488 6.58709 99.1194 6.96022 99.8657C7.33336 100.612 7.95525 101.234 8.95027 101.483C9.9453 101.731 10.9403 101.731 11.9353 101.234C12.9304 100.861 13.801 100.114 14.2985 99.2438C14.796 98.3732 14.9204 97.5025 14.5473 96.7563C14.1742 96.01 13.5523 95.3881 12.5572 95.1393C11.5622 95.015 10.5672 95.015 9.57216 95.5125C8.45276 95.8856 7.70649 96.5075 7.20898 97.3781Z" fill="white"/>
<path d="M11.5625 84.5672L13.055 90.5374L3.72665 92.7762L3.35352 91.2836L11.8112 89.1692L10.6918 84.816L11.5625 84.5672Z" fill="white"/>
<path d="M10.6919 77.2289L11.4382 83.3234L1.86106 84.4428L1.6123 82.8259L10.3188 81.7065L9.69688 77.3533L10.6919 77.2289Z" fill="white"/>
<path d="M2.23402 65.5374L1.86088 69.8906L5.34347 70.1393L5.59222 65.9105H6.46287L6.21412 70.1393L10.6917 70.3881L10.5673 72.1294L0.990234 71.6319L1.36337 65.5374H2.23402Z" fill="white"/>
<path d="M11.3136 56.4577C12.0599 57.5771 12.3087 58.8209 12.0599 60.1891C11.8112 61.5572 11.0649 62.5522 9.94549 63.2985C8.82608 64.0448 7.5823 64.2935 6.21414 64.0448C4.84598 63.796 3.85096 63.0498 3.10469 61.9304C2.35842 60.8109 2.10966 59.5672 2.35842 58.199C2.60718 56.8308 3.35345 55.8358 4.47285 55.0896C5.59225 54.3433 6.83603 54.0945 8.20419 54.3433C9.57235 54.7164 10.5674 55.3383 11.3136 56.4577ZM4.84598 56.4577C3.97534 56.9552 3.35345 57.5771 3.22907 58.4478C3.10469 59.3184 3.22907 60.0647 3.97534 60.9353C4.59723 61.6816 5.46787 62.1791 6.58728 62.4279C7.70668 62.6766 8.7017 62.5522 9.57235 62.0547C10.443 61.5572 10.9405 60.9353 11.1893 60.0647C11.438 59.194 11.1893 58.4478 10.443 57.5771C9.82111 56.8308 8.95046 56.3333 7.83106 56.0846C6.71165 55.9602 5.71663 55.9602 4.84598 56.4577Z" fill="white"/>
<path d="M16.0402 46.8806L15.2939 48.8707L10.07 50.9851L13.9257 52.4776L13.4282 53.9702L4.34863 50.612L5.46804 47.5025C5.96555 46.5075 6.46306 45.8856 7.20933 45.5125C7.9556 45.1393 8.70187 45.0149 9.44813 45.2637C10.07 45.5125 10.5675 46.01 10.9407 46.6319C11.1894 47.2537 11.3138 48 11.0651 48.8707L16.0402 46.8806ZM5.84117 49.3682L9.69689 50.7363L10.07 49.6169C10.4432 48.4975 10.1944 47.3781 8.95062 46.8806C7.70684 46.3831 6.71182 47.005 6.33868 48.1244L5.84117 49.3682Z" fill="white"/>
<path d="M24.3735 33.0746L23.3785 34.6916L16.6621 32.8259L21.0153 38.5473L20.7666 38.9204L13.677 37.3035L18.1546 42.6518L17.5327 43.5224L11.1895 35.5622L11.5626 35.0647L18.6521 36.6816L14.2989 30.8358L14.672 30.3383L24.3735 33.0746Z" fill="white"/>
<path d="M29.4728 25.8607C29.4728 27.2289 29.0997 28.3483 28.1047 29.3433C27.1097 30.3383 25.9903 30.8358 24.6221 30.8358C23.2539 30.8358 22.1345 30.4627 21.1395 29.4677C20.1445 28.4726 19.647 27.3532 19.647 25.9851C19.647 24.6169 20.0201 23.4975 21.0151 22.5025C22.0102 21.5075 23.1296 21.0099 24.4977 21.0099C25.8659 21.0099 26.9853 21.3831 27.9803 22.3781C28.9753 23.3731 29.4728 24.4925 29.4728 25.8607ZM24.0002 22.3781C23.0052 22.2537 22.2589 22.5025 21.637 23.1244C21.0151 23.7463 20.7664 24.6169 20.8908 25.6119C21.0151 26.607 21.5126 27.4776 22.3833 28.2239C23.2539 28.9701 24.1246 29.4677 25.1196 29.592C26.1146 29.7164 26.8609 29.4677 27.4828 28.7214C28.1047 28.0995 28.3534 27.2289 28.2291 26.2338C28.1047 25.2388 27.6072 24.3682 26.7365 23.6219C25.8659 22.8756 24.9952 22.5025 24.0002 22.3781Z" fill="white"/>
<path d="M38.6766 20.1393L36.9353 21.5075L31.3383 20.5125L33.9503 23.7463L32.5821 24.7413L26.7363 17.1543L29.3483 15.0398C30.0945 14.4179 30.9652 14.1692 31.8358 14.1692C32.7065 14.1692 33.3284 14.5423 33.8259 15.1642C34.3234 15.7861 34.4478 16.408 34.3234 17.1543C34.199 17.9005 33.8259 18.5224 33.204 19.1443L38.6766 20.1393ZM28.602 16.9055L31.0896 20.1393L32.0846 19.3931C33.0796 18.6468 33.3284 17.5274 32.5821 16.5324C31.8358 15.5373 30.5921 15.5373 29.597 16.2836L28.602 16.9055Z" fill="white"/>
<path d="M44.7713 16.6568L39.423 19.7662L34.5723 11.4329L39.9205 8.32343L40.2937 9.19407L36.4379 11.4329L38.1792 14.418L41.9106 12.1791L42.4081 12.9254L38.6767 15.0398L40.5424 18.1493L44.3981 15.7861L44.7713 16.6568Z" fill="white"/>
<path d="M46.0152 15.1642C45.7664 14.6667 46.0152 14.1692 46.3883 13.9204C46.8858 13.6716 47.3833 13.9204 47.6321 14.4179C47.8808 14.9154 47.6321 15.4129 47.259 15.6617C46.7614 15.7861 46.2639 15.6617 46.0152 15.1642Z" fill="white"/>
</svg>
