<svg width="112" height="74" viewBox="0 0 112 74" fill="none" xmlns="http://www.w3.org/2000/svg">
<g filter="url(#filter0_d_701_494)">
<path d="M41.1885 9.76138V25.8103L49.2639 30.0199V20.5484L55.2212 23.7056L61.4432 20.5484V30.0199L69.5187 25.8103V9.76138L55.2212 2L41.1885 9.76138Z" stroke="#898989" stroke-width="3.44199"/>
<path d="M44.5437 49.729V40.4092H43.0345L37.5273 48.0212L31.9937 40.4092H30.3521V49.729H31.9805V43.2157L36.733 49.729H38.176L42.9154 43.2025V49.729H44.5437ZM56.5132 49.729V48.3522H48.6893V45.4927H56.116V44.1159H48.6893V41.786H56.5132V40.4092H46.9286V49.729H56.5132ZM64.7596 49.729V41.786H69.5122V40.4092H58.1139V41.786H62.9989V49.729H64.7596ZM81.6866 49.729L75.5308 40.4092H74.2467L68.0511 49.729H70.0104L74.8953 42.2228L79.7009 49.729H81.6866ZM18.5142 65.729V56.4092H17.005L11.4979 64.0212L5.9642 56.4092H4.32264V65.729H5.95096V59.2157L10.7035 65.729H12.1465L16.8859 59.2025V65.729H18.5142ZM33.6741 65.729L27.5183 56.4092H26.2342L20.0386 65.729H21.9979L26.8828 58.2228L31.6884 65.729H33.6741ZM45.9365 65.729L43.739 61.5457C45.3938 61.3868 46.0424 60.5263 46.0424 59.3216V58.6597C46.0424 57.3226 45.2349 56.4092 43.1167 56.4092H35.2002V65.729H36.9609V61.5721H41.8723L44.0567 65.729H45.9365ZM44.2817 59.3349C44.2817 59.8909 43.9111 60.1954 43.1167 60.1954H36.9609V57.786H43.1167C43.9111 57.786 44.2817 58.0904 44.2817 58.6465V59.3349ZM58.4572 65.729L54.3268 60.7514L58.4704 56.4092H56.3787L52.8706 60.1954H49.8787V56.4092H48.118V65.729H49.8787V61.5721H52.9103L56.4317 65.729H58.4572ZM69.7412 65.729V64.3522H61.9174V61.4927H69.3441V60.1159H61.9174V57.786H69.7412V56.4092H60.1566V65.729H69.7412ZM77.9876 65.729V57.786H82.7402V56.4092H71.342V57.786H76.2269V65.729H77.9876ZM94.1677 65.729V64.3522H86.3438V61.4927H93.7705V60.1159H86.3438V57.786H94.1677V56.4092H84.583V65.729H94.1677ZM107.061 65.729L104.863 61.5457C106.518 61.3868 107.167 60.5263 107.167 59.3216V58.6597C107.167 57.3226 106.359 56.4092 104.241 56.4092H96.3244V65.729H98.0851V61.5721H102.997L105.181 65.729H107.061ZM105.406 59.3349C105.406 59.8909 105.035 60.1954 104.241 60.1954H98.0851V57.786H104.241C105.035 57.786 105.406 58.0904 105.406 58.6465V59.3349Z" fill="#898989"/>
</g>
<defs>
<filter id="filter0_d_701_494" x="-0.50925" y="0.0375977" width="112.201" height="76.7626" filterUnits="userSpaceOnUse" color-interpolation-filters="sRGB">
<feFlood flood-opacity="0" result="BackgroundImageFix"/>
<feColorMatrix in="SourceAlpha" type="matrix" values="0 0 0 0 0 0 0 0 0 0 0 0 0 0 0 0 0 0 127 0" result="hardAlpha"/>
<feOffset dy="3.83591"/>
<feGaussianBlur stdDeviation="1.91796"/>
<feComposite in2="hardAlpha" operator="out"/>
<feColorMatrix type="matrix" values="0 0 0 0 0 0 0 0 0 0 0 0 0 0 0 0 0 0 0.25 0"/>
<feBlend mode="normal" in2="BackgroundImageFix" result="effect1_dropShadow_701_494"/>
<feBlend mode="normal" in="SourceGraphic" in2="effect1_dropShadow_701_494" result="shape"/>
</filter>
</defs>
</svg>
