<svg width="211" height="41" viewBox="0 0 211 41" fill="none" xmlns="http://www.w3.org/2000/svg">
<path d="M44.9481 3.79897C41.5551 2.22314 37.9272 1.07789 34.1343 0.425781C33.6685 1.26177 33.1243 2.38619 32.7491 3.28066C28.7171 2.67876 24.7223 2.67876 20.7645 3.28066C20.3893 2.38619 19.8328 1.26177 19.3628 0.425781C15.5658 1.07789 11.9337 2.22735 8.54072 3.80731C1.69706 14.073 -0.158143 24.0837 0.76946 33.9523C5.30853 37.3171 9.70744 39.3611 14.0321 40.6986C15.0999 39.2398 16.0522 37.6891 16.8726 36.0548C15.3101 35.4655 13.8136 34.7382 12.3996 33.8938C12.7747 33.618 13.1417 33.3295 13.4962 33.0327C22.1208 37.0371 31.4917 37.0371 40.0133 33.0327C40.372 33.3295 40.7388 33.618 41.1099 33.8938C39.6917 34.7423 38.191 35.4696 36.6286 36.059C37.449 37.6891 38.3972 39.244 39.4691 40.7028C43.7979 39.3652 48.2009 37.3213 52.74 33.9523C53.8284 22.5121 50.8807 12.5933 44.9481 3.79897ZM18.0476 27.8832C15.4586 27.8832 13.3354 25.484 13.3354 22.5623C13.3354 19.6406 15.4132 17.2372 18.0476 17.2372C20.682 17.2372 22.8052 19.6363 22.7599 22.5623C22.7639 25.484 20.682 27.8832 18.0476 27.8832ZM35.4618 27.8832C32.8728 27.8832 30.7496 25.484 30.7496 22.5623C30.7496 19.6406 32.8274 17.2372 35.4618 17.2372C38.0962 17.2372 40.2194 19.6363 40.1741 22.5623C40.1741 25.484 38.0962 27.8832 35.4618 27.8832Z" fill="#898989"/>
<path d="M70.9824 10.7007H82.237C84.9501 10.7007 87.2422 11.1312 89.1226 11.9881C90.9979 12.8449 92.404 14.0403 93.3359 15.5702C94.2671 17.1 94.737 18.8514 94.737 20.8242C94.737 22.7553 94.2506 24.5067 93.2777 26.0741C92.3049 27.6457 90.8247 28.8872 88.8337 29.8025C86.8427 30.7179 84.3768 31.1777 81.4294 31.1777H70.9824V10.7007ZM81.3137 25.9738C83.1402 25.9738 84.5463 25.5099 85.5271 24.5861C86.5086 23.6581 86.9994 22.3959 86.9994 20.795C86.9994 19.3111 86.5618 18.1282 85.6881 17.2421C84.8143 16.3559 83.4908 15.9087 81.7219 15.9087H78.2011V25.9738H81.3137Z" fill="#898989"/>
<path d="M111.587 31.1526C110.029 30.743 108.623 30.1494 107.374 29.3678V24.5109C108.318 25.2506 109.583 25.861 111.171 26.3416C112.758 26.8181 114.292 27.0563 115.776 27.0563C116.468 27.0563 116.992 26.9644 117.346 26.7805C117.701 26.5966 117.879 26.3751 117.879 26.1201C117.879 25.8275 117.784 25.5851 117.59 25.3886C117.396 25.1922 117.021 25.0291 116.465 24.8912L113.001 24.1012C111.018 23.6331 109.612 22.9852 108.776 22.1534C107.939 21.3258 107.522 20.239 107.522 18.8931C107.522 17.7604 107.885 16.7782 108.619 15.938C109.349 15.0978 110.387 14.4499 111.735 13.9943C113.084 13.5346 114.658 13.3047 116.468 13.3047C118.084 13.3047 119.564 13.4802 120.913 13.8313C122.261 14.1825 123.374 14.6297 124.261 15.1772V19.7709C123.353 19.2233 122.314 18.7928 121.127 18.4667C119.944 18.1449 118.728 17.9861 117.474 17.9861C115.664 17.9861 114.762 18.2996 114.762 18.9224C114.762 19.215 114.902 19.4323 115.182 19.5786C115.462 19.7249 115.978 19.8754 116.724 20.0342L119.61 20.5609C121.494 20.8911 122.9 21.4721 123.823 22.2997C124.747 23.1273 125.208 24.352 125.208 25.9738C125.208 27.7502 124.446 29.1588 122.916 30.2038C121.387 31.2488 119.218 31.7712 116.406 31.7712C114.753 31.7671 113.146 31.5622 111.587 31.1526V31.1526Z" fill="#898989"/>
<path d="M132.019 30.5384C130.367 29.7191 129.117 28.6073 128.284 27.2029C127.452 25.7984 127.031 24.2185 127.031 22.4629C127.031 20.7074 127.464 19.1358 128.33 17.7523C129.195 16.3687 130.465 15.282 132.139 14.492C133.813 13.702 135.812 13.3091 138.142 13.3091C141.027 13.3091 143.423 13.9235 145.328 15.1524V20.5068C144.656 20.0386 143.872 19.6583 142.977 19.3657C142.083 19.0731 141.126 18.9268 140.104 18.9268C138.315 18.9268 136.917 19.257 135.907 19.9216C134.897 20.5862 134.39 21.4514 134.39 22.5256C134.39 23.5789 134.88 24.44 135.862 25.1172C136.843 25.7901 138.265 26.1287 140.133 26.1287C141.093 26.1287 142.042 25.9865 142.977 25.7065C143.909 25.4223 144.713 25.0754 145.385 24.6657V29.8445C143.27 31.1319 140.817 31.7756 138.026 31.7756C135.676 31.7673 133.672 31.3576 132.019 30.5384Z" fill="#898989"/>
<path d="M152.526 30.538C150.86 29.7187 149.591 28.5985 148.716 27.1732C147.843 25.7479 147.401 24.1596 147.401 22.404C147.401 20.6485 147.838 19.081 148.716 17.7059C149.594 16.3307 150.856 15.2523 152.514 14.4706C154.166 13.689 156.141 13.3003 158.429 13.3003C160.718 13.3003 162.692 13.689 164.345 14.4706C165.999 15.2523 167.26 16.3224 168.126 17.6891C168.992 19.056 169.425 20.6234 169.425 22.3999C169.425 24.1553 168.992 25.7437 168.126 27.169C167.26 28.5943 165.994 29.7145 164.329 30.5338C162.663 31.3531 160.697 31.7627 158.426 31.7627C156.154 31.7627 154.187 31.3572 152.526 30.538ZM161.295 25.3466C161.996 24.6361 162.35 23.6956 162.35 22.5252C162.35 21.3549 161.999 20.4228 161.295 19.7331C160.594 19.0392 159.637 18.6923 158.426 18.6923C157.193 18.6923 156.228 19.0392 155.523 19.7331C154.822 20.427 154.472 21.3549 154.472 22.5252C154.472 23.6956 154.822 24.6361 155.523 25.3466C156.224 26.0572 157.193 26.4167 158.426 26.4167C159.637 26.4125 160.594 26.0572 161.295 25.3466Z" fill="#898989"/>
<path d="M186.765 14.3872V20.7072C186.031 20.2181 185.083 19.9757 183.908 19.9757C182.37 19.9757 181.183 20.4481 180.358 21.3927C179.529 22.3373 179.117 23.8086 179.117 25.7982V31.1819H172.047V14.0654H178.973V19.5076C179.356 17.5179 179.979 16.0509 180.836 15.102C181.69 14.1574 182.794 13.6851 184.139 13.6851C185.157 13.6851 186.031 13.9191 186.765 14.3872Z" fill="#898989"/>
<path d="M210.256 10.1152V31.1816H203.185V27.3488C202.587 28.7908 201.68 29.8901 200.46 30.6424C199.24 31.3907 197.731 31.7669 195.942 31.7669C194.342 31.7669 192.949 31.3739 191.757 30.584C190.566 29.794 189.647 28.7114 188.999 27.3362C188.356 25.961 188.03 24.4062 188.03 22.6674C188.01 20.8742 188.352 19.2649 189.057 17.8396C189.758 16.4143 190.751 15.3025 192.029 14.5041C193.308 13.7057 194.767 13.3045 196.404 13.3045C199.772 13.3045 202.031 14.7883 203.185 17.7518V10.1152H210.256ZM202.13 25.2296C202.852 24.519 203.21 23.5953 203.21 22.4667C203.21 21.3758 202.86 20.4854 202.159 19.8041C201.458 19.1229 200.497 18.7801 199.289 18.7801C198.098 18.7801 197.146 19.127 196.432 19.8208C195.719 20.5147 195.365 21.4134 195.365 22.5252C195.365 23.6371 195.719 24.5441 196.432 25.2463C197.146 25.9485 198.086 26.2996 199.261 26.2996C200.452 26.2955 201.408 25.9401 202.13 25.2296V25.2296Z" fill="#898989"/>
<path d="M100.695 15.8875C102.641 15.8875 104.22 14.4503 104.22 12.6774C104.22 10.9045 102.641 9.46729 100.695 9.46729C98.7478 9.46729 97.1699 10.9045 97.1699 12.6774C97.1699 14.4503 98.7478 15.8875 100.695 15.8875Z" fill="#898989"/>
<path d="M97.167 18.0991C99.3268 19.0437 102.007 19.0855 104.216 18.0991V31.274H97.167V18.0991Z" fill="#898989"/>
</svg>
