<svg width="167" height="43" viewBox="0 0 167 43" fill="none" xmlns="http://www.w3.org/2000/svg">
<path d="M47.7075 24.7019C47.7075 24.9942 47.4616 25.2403 47.1544 25.2403H36.9674C37.2286 27.7627 39.1185 30.0697 41.792 30.0697C43.6204 30.0697 44.9725 29.3776 45.9866 27.9165C46.0942 27.7627 46.2478 27.655 46.4322 27.655C46.7241 27.655 46.9392 27.8703 46.9392 28.1625C46.9392 28.2702 46.9085 28.3471 46.8624 28.424C45.833 30.2081 43.7894 31.0848 41.792 31.0848C38.3656 31.0848 35.9072 28.0087 35.9072 24.7327C35.9072 21.4413 38.3503 18.3806 41.792 18.3806C45.2184 18.3806 47.6921 21.4259 47.7075 24.7019V24.7019ZM46.6166 24.2252C46.4015 21.7028 44.4655 19.3957 41.792 19.3957C39.1185 19.3957 37.2286 21.7028 36.9674 24.2252H46.6166ZM60.0763 18.6267C60.3682 18.6267 60.5833 18.8881 60.5833 19.1342C60.5833 19.4265 60.3682 19.6418 60.0763 19.6418H57.3413V30.3927C57.3413 30.6542 57.1262 30.9003 56.8343 30.9003C56.5423 30.9003 56.3272 30.6388 56.3272 30.3927V19.6418H53.6998C53.4079 19.6418 53.1928 19.4265 53.1928 19.1342C53.1928 18.8728 53.4079 18.6267 53.6998 18.6267H56.3272V14.7047C56.3272 14.4432 56.5269 14.1971 56.7882 14.1663C57.1108 14.1356 57.3567 14.3663 57.3567 14.6739V18.6267H60.0763ZM76.7626 23.8253V30.3312C76.7626 30.6234 76.5013 30.8387 76.2555 30.8387C75.9636 30.8387 75.7485 30.6234 75.7485 30.3312V23.8253C75.7485 21.6259 74.5039 19.4418 72.0609 19.4418C68.9264 19.4418 67.5743 22.1796 67.7587 24.9942C67.7587 25.0711 67.7894 25.3941 67.7894 25.4402V30.3158C67.7894 30.5773 67.5897 30.8234 67.3285 30.8541C67.0058 30.8849 66.76 30.6542 66.76 30.3466V8.95238C66.76 8.69091 66.9751 8.44482 67.267 8.44482C67.559 8.44482 67.7741 8.70629 67.7741 8.95238V21.0414C68.6499 19.4726 70.2171 18.4114 72.0455 18.4114C75.057 18.4114 76.7626 21.0414 76.7626 23.8253ZM95.0622 24.7019C95.0622 24.9942 94.8163 25.2403 94.509 25.2403H84.3221C84.5833 27.7627 86.4732 30.0697 89.1467 30.0697C90.9751 30.0697 92.3272 29.3776 93.3413 27.9165C93.4489 27.7627 93.6025 27.655 93.7869 27.655C94.0788 27.655 94.2939 27.8703 94.2939 28.1625C94.2939 28.2702 94.2632 28.3471 94.2171 28.424C93.1877 30.2081 91.1441 31.0848 89.1467 31.0848C85.7203 31.0848 83.2619 28.0087 83.2619 24.7327C83.2619 21.4413 85.7049 18.3806 89.1467 18.3806C92.5577 18.3806 95.0314 21.4259 95.0622 24.7019V24.7019ZM93.9559 24.2252C93.7408 21.7028 91.8048 19.3957 89.1313 19.3957C86.4732 19.3957 84.5679 21.7028 84.3067 24.2252H93.9559ZM107.569 19.1035C107.569 19.4265 107.385 19.611 107.093 19.6572C104.097 20.1032 102.745 22.5487 102.745 25.3941V30.2697C102.745 30.5311 102.545 30.7772 102.284 30.808C101.961 30.8387 101.715 30.608 101.715 30.3004V19.1804C101.715 18.9189 101.915 18.6728 102.176 18.6421C102.499 18.6113 102.745 18.842 102.745 19.1496V21.4105C103.59 19.9802 105.264 18.6267 107.016 18.6267C107.277 18.6267 107.569 18.8112 107.569 19.1035V19.1035ZM124.332 24.7019C124.332 24.9942 124.087 25.2403 123.779 25.2403H113.592C113.853 27.7627 115.743 30.0697 118.417 30.0697C120.245 30.0697 121.597 29.3776 122.611 27.9165C122.719 27.7627 122.873 27.655 123.057 27.655C123.349 27.655 123.564 27.8703 123.564 28.1625C123.564 28.2702 123.533 28.3471 123.487 28.424C122.458 30.2081 120.414 31.0848 118.417 31.0848C114.99 31.0848 112.532 28.0087 112.532 24.7327C112.532 21.4413 114.975 18.3806 118.417 18.3806C121.843 18.3806 124.317 21.4259 124.332 24.7019V24.7019ZM123.241 24.2252C123.026 21.7028 121.09 19.3957 118.417 19.3957C115.743 19.3957 113.853 21.7028 113.592 24.2252H123.241ZM140.804 19.2265V30.3927C140.804 30.6849 140.542 30.9003 140.297 30.9003C140.005 30.9003 139.789 30.6849 139.789 30.3927V28.2702C138.944 29.9467 137.454 31.1617 135.549 31.1617C132.522 31.1617 130.847 28.5317 130.847 25.7478V19.2111C130.847 18.9497 131.062 18.7036 131.354 18.7036C131.646 18.7036 131.861 18.965 131.861 19.2111V25.7478C131.861 27.9472 133.106 30.1312 135.549 30.1312C138.975 30.1312 139.789 26.9167 139.789 23.3639V19.1958C139.789 18.8881 140.112 18.5805 140.481 18.719C140.665 18.8112 140.804 19.0112 140.804 19.2265V19.2265ZM166.601 23.7791V30.3158C166.601 30.608 166.34 30.8234 166.094 30.8234C165.802 30.8234 165.587 30.608 165.587 30.3158V23.7791C165.587 21.5797 164.343 19.4265 161.9 19.4265C158.827 19.4265 157.659 22.7179 157.659 25.271V30.3158C157.659 30.608 157.398 30.8234 157.152 30.8234C156.86 30.8234 156.645 30.608 156.645 30.3158V23.7791C156.645 21.5797 155.4 19.4265 152.957 19.4265C149.853 19.4265 148.578 21.8719 148.686 25.1326C148.686 25.2095 148.716 25.3479 148.686 25.3941V30.3004C148.686 30.5619 148.486 30.808 148.225 30.8387C147.902 30.8695 147.656 30.6388 147.656 30.3312V19.1804C147.656 18.9189 147.856 18.6728 148.117 18.6421C148.44 18.6113 148.686 18.842 148.686 19.1496V21.0106C149.562 19.4418 151.129 18.4114 152.957 18.4114C155.031 18.4114 156.645 19.7341 157.305 21.6566C158.151 19.7494 159.795 18.4114 161.9 18.4114C164.896 18.4114 166.601 21.0106 166.601 23.7791Z" fill="#898989"/>
<path opacity="0.6" d="M13.413 29.5001L26.1813 21.9483L13.413 16.1499L0.660156 21.9483L13.413 29.5001Z" fill="#898989"/>
<path opacity="0.45" d="M13.413 16.1502V0.754395L0.660156 21.9486L13.413 29.5004V16.1502Z" fill="#898989"/>
<path opacity="0.8" d="M13.4131 29.5004L26.1813 21.9486L13.4131 0.754395V16.1502V29.5004Z" fill="#898989"/>
<path opacity="0.45" d="M13.413 31.9148L0.660156 24.3784L13.413 42.3735V31.9148Z" fill="#898989"/>
<path opacity="0.8" d="M26.1813 24.3784L13.4131 31.9148V42.3735L26.1813 24.3784Z" fill="#898989"/>
</svg>
