<svg width="183" height="43" viewBox="0 0 183 43" fill="none" xmlns="http://www.w3.org/2000/svg">
<path d="M42.1986 21.5642C42.1986 33.0564 32.8859 42.3739 21.3996 42.3739C9.91326 42.3739 0.600586 33.0564 0.600586 21.5642C0.600586 10.0719 9.91326 0.754395 21.3996 0.754395C32.8884 0.754395 42.1986 10.0719 42.1986 21.5642Z" fill="#898989"/>
<path d="M10.8618 22.2629L10.9515 22.1218L16.3621 13.6531C16.4412 13.5291 16.6271 13.5419 16.6869 13.6766C17.5909 15.7034 18.3708 18.2242 18.0054 19.7935C17.8494 20.4392 17.4221 21.3136 16.9412 22.1218C16.8793 22.2394 16.8109 22.3548 16.7382 22.466C16.704 22.5173 16.6463 22.5472 16.5844 22.5472H11.0199C10.8703 22.5472 10.7827 22.3848 10.8618 22.2629Z" fill="#898989"/>
<path d="M34.9788 23.8368V25.1774C34.9788 25.2543 34.9318 25.3227 34.8634 25.3527C34.4446 25.5322 33.0107 26.1907 32.4145 27.0203C30.893 29.1391 29.7306 32.1686 27.1321 32.1686H16.2915C12.4494 32.1686 9.33594 29.0429 9.33594 25.1859V25.0619C9.33594 24.9593 9.41926 24.8759 9.52184 24.8759H15.565C15.6847 24.8759 15.7723 24.9871 15.7616 25.1046C15.7189 25.498 15.7915 25.9 15.9774 26.2656C16.3364 26.9947 17.0801 27.4501 17.8835 27.4501H20.8752V25.1132H17.9177C17.766 25.1132 17.6763 24.9379 17.7639 24.8139C17.7959 24.7647 17.8323 24.7134 17.8707 24.6557C18.1507 24.258 18.5503 23.6401 18.9477 22.9367C19.2191 22.4621 19.4819 21.9554 19.6935 21.4465C19.7363 21.3546 19.7704 21.2605 19.8046 21.1686C19.8623 21.0061 19.9222 20.8543 19.9649 20.7025C20.0077 20.5742 20.0418 20.4395 20.076 20.3134C20.1765 19.8815 20.2192 19.424 20.2192 18.9493C20.2192 18.7633 20.2107 18.5688 20.1936 18.3828C20.185 18.1797 20.1594 17.9765 20.1337 17.7734C20.1166 17.5938 20.0846 17.4164 20.0504 17.2304C20.0077 16.9588 19.9478 16.6895 19.8794 16.4179L19.8559 16.3153C19.8046 16.1293 19.7619 15.9518 19.7021 15.7658C19.5332 15.1821 19.3388 14.6134 19.1336 14.0811C19.0589 13.8694 18.9734 13.6663 18.8879 13.4632C18.7618 13.1575 18.6336 12.8795 18.5161 12.6165C18.4563 12.4968 18.405 12.3878 18.3537 12.2766C18.296 12.1504 18.2362 12.0243 18.1763 11.9046C18.1336 11.8127 18.0844 11.7271 18.0502 11.6416L17.6848 10.966C17.6335 10.874 17.719 10.765 17.8194 10.7928L20.106 11.4128H20.1124C20.1166 11.4128 20.1188 11.415 20.1209 11.415L20.4222 11.4983L20.7534 11.5924L20.8752 11.6266V10.2669C20.8752 9.61048 21.4009 9.07812 22.0505 9.07812C22.3753 9.07812 22.6702 9.21068 22.8818 9.42661C23.0933 9.64257 23.2258 9.93761 23.2258 10.2669V12.2852L23.4695 12.3535C23.4887 12.36 23.5079 12.3685 23.525 12.3813C23.5848 12.4263 23.6703 12.4925 23.7793 12.5738C23.8648 12.6422 23.9566 12.7256 24.0678 12.8111C24.2879 12.9885 24.5507 13.2173 24.8392 13.4803C24.9161 13.5466 24.9909 13.615 25.0593 13.6834C25.4311 14.0298 25.8478 14.436 26.2453 14.885C26.3564 15.0111 26.4654 15.1394 26.5765 15.2741C26.6876 15.4109 26.8052 15.5456 26.9077 15.6803C27.0423 15.8599 27.1877 16.0459 27.3137 16.2405C27.3736 16.3324 27.4419 16.4265 27.4996 16.5184C27.662 16.7643 27.8052 17.0187 27.942 17.2731C27.9997 17.3907 28.0595 17.519 28.1108 17.6451C28.2625 17.9851 28.3822 18.3314 28.4591 18.6778C28.4826 18.7526 28.4997 18.8339 28.5083 18.9066V18.9237C28.5339 19.0263 28.5425 19.1353 28.551 19.2465C28.5852 19.6014 28.5681 19.9563 28.4912 20.3134C28.4591 20.4652 28.4164 20.6084 28.3651 20.7602C28.3138 20.9056 28.2625 21.0574 28.1963 21.2006C28.0681 21.4978 27.9163 21.795 27.7368 22.073C27.6791 22.1756 27.6107 22.2846 27.5424 22.3873C27.4676 22.4963 27.3907 22.5989 27.3223 22.6994C27.2283 22.8277 27.1278 22.9624 27.0253 23.0821C26.9334 23.2083 26.8394 23.3344 26.7368 23.4456C26.5936 23.6145 26.4568 23.7748 26.3136 23.9288C26.2282 24.0292 26.1363 24.1319 26.0423 24.2238C25.9504 24.3264 25.8563 24.4183 25.7709 24.5039C25.6277 24.6471 25.508 24.7583 25.4076 24.8502L25.1726 25.0662C25.1384 25.0961 25.0935 25.1132 25.0465 25.1132H23.2258V27.4501H25.5166C26.0294 27.4501 26.5167 27.2683 26.9099 26.9348C27.0445 26.8172 27.6321 26.3084 28.3266 25.5408C28.3501 25.5151 28.3801 25.4959 28.4143 25.4874L34.7416 23.6572C34.8592 23.623 34.9788 23.7128 34.9788 23.8368Z" fill="white"/>
<path d="M62.4669 31.5511C60.5867 31.5511 58.8583 31.1295 57.2821 30.2864C55.7247 29.4432 54.4805 28.2702 53.5499 26.7672C52.6385 25.2459 52.1826 23.5413 52.1826 21.6534C52.1826 19.7655 52.6385 18.07 53.5499 16.5671C54.4805 15.0641 55.7247 13.891 57.2821 13.0479C58.8583 12.2048 60.5867 11.7832 62.4669 11.7832C64.3471 11.7832 66.066 12.2048 67.6234 13.0479C69.2 13.891 70.4342 15.0641 71.3269 16.5671C72.2387 18.07 72.6942 19.7655 72.6942 21.6534C72.6942 23.5413 72.2387 25.2459 71.3269 26.7672C70.4155 28.2702 69.1808 29.4432 67.6234 30.2864C66.066 31.1295 64.3471 31.5511 62.4669 31.5511ZM62.4669 27.2621C64.0622 27.2621 65.3347 26.7488 66.2843 25.7224C67.2532 24.696 67.7374 23.3397 67.7374 21.6534C67.7374 19.9488 67.2532 18.5925 66.2843 17.5843C65.3347 16.5579 64.0622 16.0447 62.4669 16.0447C60.8525 16.0447 59.5613 16.5488 58.5925 17.5568C57.6428 18.5649 57.1681 19.9304 57.1681 21.6534C57.1681 23.358 57.6428 24.7235 58.5925 25.7499C59.5613 26.758 60.8525 27.2621 62.4669 27.2621Z" fill="#898989"/>
<path d="M80.2758 18.1893C80.7505 17.4745 81.4056 16.8971 82.2414 16.4572C83.0771 16.0173 84.055 15.7974 85.1757 15.7974C86.486 15.7974 87.6732 16.1181 88.7369 16.7596C89.8001 17.4012 90.6358 18.3176 91.2436 19.509C91.8705 20.7004 92.1837 22.0842 92.1837 23.6605C92.1837 25.2368 91.8705 26.6298 91.2436 27.8396C90.6358 29.031 89.8001 29.9565 88.7369 30.6164C87.6732 31.2579 86.486 31.5787 85.1757 31.5787C84.0742 31.5787 83.0962 31.3587 82.2414 30.9188C81.4056 30.4789 80.7505 29.9108 80.2758 29.2142V35.9227H75.4043V16.0173H80.2758V18.1893ZM87.2269 23.6605C87.2269 22.4875 86.8849 21.571 86.2011 20.9112C85.5363 20.233 84.7102 19.8939 83.7227 19.8939C82.7543 19.8939 81.9281 20.233 81.2442 20.9112C80.5795 21.5893 80.2471 22.515 80.2471 23.688C80.2471 24.8611 80.5795 25.7867 81.2442 26.4649C81.9281 27.1431 82.7543 27.4821 83.7227 27.4821C84.6915 27.4821 85.5176 27.1431 86.2011 26.4649C86.8849 25.7684 87.2269 24.8336 87.2269 23.6605Z" fill="#898989"/>
<path d="M109.725 23.4406C109.725 23.8805 109.696 24.3387 109.639 24.8153H98.6143C98.6905 25.7684 99.0037 26.5015 99.5544 27.0147C100.124 27.5096 100.817 27.7571 101.634 27.7571C102.85 27.7571 103.695 27.2622 104.17 26.2724H109.355C109.089 27.2805 108.605 28.1878 107.902 28.9943C107.218 29.8008 106.354 30.4331 105.309 30.8914C104.265 31.3495 103.097 31.5787 101.805 31.5787C100.248 31.5787 98.8614 31.2579 97.6459 30.6164C96.4304 29.9749 95.4807 29.0584 94.7969 27.867C94.1134 26.6757 93.7715 25.2827 93.7715 23.688C93.7715 22.0934 94.1039 20.7004 94.7686 19.509C95.452 18.3176 96.4017 17.4012 97.6172 16.7596C98.8327 16.1181 100.229 15.7974 101.805 15.7974C103.344 15.7974 104.711 16.109 105.907 16.7322C107.104 17.3553 108.035 18.2443 108.699 19.399C109.383 20.5538 109.725 21.901 109.725 23.4406ZM104.74 22.2034C104.74 21.3969 104.455 20.7554 103.885 20.2788C103.315 19.8023 102.603 19.564 101.748 19.564C100.931 19.564 100.238 19.7931 99.6684 20.2513C99.1177 20.7096 98.7757 21.3602 98.643 22.2034H104.74Z" fill="#898989"/>
<path d="M121.981 15.8521C123.842 15.8521 125.323 16.4386 126.425 17.6116C127.546 18.7663 128.106 20.361 128.106 22.3955V31.3584H123.263V23.0278C123.263 22.0014 122.987 21.2041 122.437 20.6359C121.886 20.0677 121.145 19.7836 120.215 19.7836C119.284 19.7836 118.543 20.0677 117.993 20.6359C117.442 21.2041 117.166 22.0014 117.166 23.0278V31.3584H112.295V16.017H117.166V18.0515C117.66 17.3733 118.325 16.8418 119.161 16.4569C119.996 16.0537 120.936 15.8521 121.981 15.8521Z" fill="#898989"/>
<path d="M138.727 31.5511C137.265 31.5511 135.954 31.322 134.795 30.8637C133.637 30.4055 132.706 29.7273 132.004 28.8292C131.32 27.9311 130.959 26.8497 130.921 25.585H136.106C136.182 26.2998 136.438 26.8497 136.875 27.2346C137.312 27.6012 137.882 27.7845 138.585 27.7845C139.306 27.7845 139.876 27.6286 140.294 27.3171C140.711 26.9872 140.921 26.5381 140.921 25.9699C140.921 25.4933 140.75 25.0993 140.408 24.7876C140.085 24.476 139.676 24.2195 139.183 24.0179C138.708 23.8162 138.024 23.5871 137.131 23.3305C135.84 22.9456 134.786 22.5607 133.969 22.1758C133.153 21.7909 132.45 21.2226 131.861 20.4712C131.272 19.7197 130.978 18.7391 130.978 17.5294C130.978 15.7331 131.652 14.3309 133.001 13.3228C134.349 12.2964 136.106 11.7832 138.271 11.7832C140.474 11.7832 142.25 12.2964 143.598 13.3228C144.947 14.3309 145.669 15.7423 145.763 17.5568H140.493C140.455 16.9337 140.218 16.4479 139.781 16.0997C139.344 15.7331 138.784 15.5498 138.1 15.5498C137.511 15.5498 137.037 15.7056 136.676 16.0172C136.315 16.3105 136.134 16.7412 136.134 17.3094C136.134 17.9326 136.438 18.4183 137.046 18.7665C137.654 19.1148 138.603 19.4906 139.895 19.8938C141.186 20.3154 142.231 20.7186 143.028 21.1035C143.845 21.4884 144.548 22.0475 145.137 22.7806C145.726 23.5138 146.02 24.4577 146.02 25.6125C146.02 26.7122 145.726 27.7111 145.137 28.6092C144.567 29.5074 143.731 30.2222 142.63 30.7538C141.528 31.2853 140.227 31.5511 138.727 31.5511Z" fill="#898989"/>
<path d="M164.003 23.4406C164.003 23.8805 163.975 24.3387 163.918 24.8153H152.893C152.969 25.7684 153.282 26.5015 153.833 27.0147C154.403 27.5096 155.096 27.7571 155.913 27.7571C157.128 27.7571 157.973 27.2622 158.448 26.2724H163.633C163.367 27.2805 162.883 28.1878 162.18 28.9943C161.496 29.8008 160.632 30.4331 159.587 30.8914C158.543 31.3495 157.375 31.5787 156.084 31.5787C154.526 31.5787 153.14 31.2579 151.924 30.6164C150.709 29.9749 149.759 29.0584 149.075 27.867C148.392 26.6757 148.05 25.2827 148.05 23.688C148.05 22.0934 148.382 20.7004 149.047 19.509C149.73 18.3176 150.68 17.4012 151.896 16.7596C153.111 16.1181 154.507 15.7974 156.084 15.7974C157.622 15.7974 158.989 16.109 160.186 16.7322C161.382 17.3553 162.313 18.2443 162.978 19.399C163.662 20.5538 164.003 21.901 164.003 23.4406ZM159.018 22.2034C159.018 21.3969 158.733 20.7554 158.163 20.2788C157.593 19.8023 156.881 19.564 156.027 19.564C155.21 19.564 154.517 19.7931 153.947 20.2513C153.396 20.7096 153.054 21.3602 152.921 22.2034H159.018Z" fill="#898989"/>
<path d="M165.604 23.6605C165.604 22.0842 165.909 20.7004 166.516 19.509C167.143 18.3176 167.988 17.4012 169.052 16.7596C170.115 16.1181 171.302 15.7974 172.613 15.7974C173.733 15.7974 174.712 16.0173 175.547 16.4572C176.402 16.8971 177.057 17.4745 177.513 18.1893V16.0173H182.384V31.3587H177.513V29.1867C177.038 29.9016 176.373 30.4789 175.519 30.9188C174.683 31.3587 173.705 31.5787 172.584 31.5787C171.293 31.5787 170.115 31.2579 169.052 30.6164C167.988 29.9565 167.143 29.031 166.516 27.8396C165.909 26.6298 165.604 25.2368 165.604 23.6605ZM177.513 23.688C177.513 22.515 177.171 21.5893 176.487 20.9112C175.823 20.233 175.006 19.8939 174.037 19.8939C173.068 19.8939 172.242 20.233 171.559 20.9112C170.894 21.571 170.562 22.4875 170.562 23.6605C170.562 24.8336 170.894 25.7684 171.559 26.4649C172.242 27.1431 173.068 27.4821 174.037 27.4821C175.006 27.4821 175.823 27.1431 176.487 26.4649C177.171 25.7867 177.513 24.8611 177.513 23.688Z" fill="#898989"/>
</svg>
