<svg width="195" height="43" viewBox="0 0 195 43" fill="none" xmlns="http://www.w3.org/2000/svg">
<path d="M27.8114 26.9227C27.8114 28.2403 27.8493 29.4928 27.8009 30.7435C27.7525 31.9849 28.327 32.8952 29.3459 33.4875C31.2233 34.5783 33.1519 35.5862 35.0672 36.6147C36.1821 37.2126 37.2818 37.0694 38.3453 36.4687C40.0887 35.484 41.8275 34.4909 43.5671 33.4996C44.6582 32.8785 45.2878 31.9923 45.2801 30.7155C45.2688 28.7964 45.2393 26.8762 45.2897 24.9578C45.3268 23.5557 44.7417 22.5467 43.5282 21.8688C41.7382 20.8692 39.9406 19.8845 38.1382 18.9072C36.8221 18.1931 35.5839 18.4701 34.3598 19.1899C33.0589 19.9543 31.7256 20.6656 30.4085 21.403C28.6879 22.3672 26.97 23.3362 25.2493 24.3004C23.8914 25.0611 22.5335 25.8218 21.1727 26.5768C19.4881 27.5104 17.7874 28.417 16.117 29.3756C14.7098 30.1837 13.3946 30.0572 12.0461 29.2297C10.9313 28.5462 9.76038 27.952 8.61523 27.316C6.75586 26.2829 4.89556 25.2526 3.04203 24.2102C2.51966 23.9164 1.98788 23.6244 1.51696 23.2618C0.819926 22.7243 0.582576 21.9358 0.57868 21.1092C0.560686 17.2706 0.557833 13.4322 0.577763 9.59363C0.583493 8.3737 1.15985 7.47731 2.2909 6.87661C4.1834 5.87136 6.03704 4.79735 7.91247 3.76054C9.47742 2.89583 11.0471 2.04033 12.6168 1.18484C13.8589 0.508866 15.0488 0.675247 16.2338 1.36245C17.8462 2.29603 19.4796 3.19522 21.1024 4.11116C22.8468 5.09585 24.596 6.07133 26.329 7.07467C27.2834 7.62695 27.6842 8.51963 27.7097 9.56757C27.7382 10.7587 27.7297 11.9518 27.7021 13.1429C27.6974 13.3252 27.5464 13.579 27.3859 13.672C26.0109 14.4643 24.6179 15.2268 23.2315 15.9995C23.1393 16.0507 23.0577 16.1185 22.92 16.2153C22.9009 16.0562 22.8772 15.9446 22.8772 15.8331C22.8743 14.7647 22.8288 13.6944 22.8867 12.6297C22.9636 11.2218 22.3654 10.212 21.148 9.53229C19.3314 8.51783 17.5082 7.51348 15.6745 6.52789C14.4599 5.87506 13.2862 6.10571 12.1411 6.75752C10.7878 7.52651 9.41667 8.26393 8.06443 9.03293C7.47662 9.36771 6.87929 9.70339 6.35416 10.1209C5.66102 10.6704 5.39697 11.4366 5.40464 12.3135C5.42069 14.3099 5.43685 16.3073 5.39983 18.3037C5.37702 19.5349 5.93161 20.4489 6.94679 21.0477C8.83081 22.158 10.7565 23.2022 12.6833 24.241C13.9044 24.8993 15.0896 24.703 16.2547 24.0121C17.737 23.1325 19.2469 22.2965 20.751 21.4514C22.6056 20.4098 24.465 19.3777 26.3233 18.3418C28.1542 17.3217 29.9859 16.3045 31.8158 15.2826C32.8519 14.7042 33.886 14.1249 34.9172 13.5381C36.1631 12.8287 37.3538 13.0361 38.5323 13.712C39.6557 14.3555 40.7886 14.9832 41.9186 15.6137C43.6677 16.5899 45.4188 17.5617 47.167 18.5381C47.7719 18.8756 48.3835 19.2047 48.9732 19.5674C49.8174 20.0863 50.2162 20.847 50.2143 21.8279C50.2077 25.7287 50.1839 29.6295 50.2267 33.5294C50.2409 34.8265 49.6065 35.6532 48.5459 36.2484C45.6696 37.8626 42.7818 39.4582 39.8979 41.0586C39.3595 41.3571 38.8115 41.6397 38.2712 41.9372C36.9379 42.6709 35.6902 42.4096 34.4519 41.676C33.339 41.0167 32.1976 40.4029 31.0656 39.7735C29.1798 38.7255 27.2872 37.6896 25.4069 36.6323C24.8581 36.3236 24.3121 35.9982 23.8182 35.6142C23.1916 35.1259 23.0017 34.396 22.9789 33.6568C22.9408 32.4043 22.9618 31.1499 22.9769 29.8963C22.9789 29.7615 23.0681 29.5682 23.1783 29.504C24.6198 28.6736 26.0727 27.8618 27.5227 27.0463C27.5901 27.0082 27.6623 26.9859 27.8114 26.9227Z" fill="#898989"/>
<path d="M146.835 14.9056C146.969 14.6052 147.078 14.3077 147.235 14.0371C147.302 13.918 147.467 13.7777 147.59 13.7758C149.124 13.7581 150.656 13.7647 152.253 13.7647C152.253 13.9682 152.253 14.1469 152.253 14.3263C152.253 19.5419 152.247 24.7585 152.259 29.9741C152.263 31.5502 151.67 32.9088 150.735 34.138C149.863 35.2827 148.722 36.1354 147.41 36.7435C145.937 37.4261 144.39 37.8353 142.739 37.8231C141.439 37.8138 140.144 37.8305 138.881 37.4559C137.475 37.0392 136.156 36.4628 134.999 35.5627C134.637 35.2799 134.272 35 133.887 34.7016C134.94 33.5169 135.954 32.3759 136.98 31.2219C137.945 32.0459 138.938 32.76 140.156 33.0994C142.064 33.6322 143.895 33.4676 145.567 32.3946C146.484 31.8069 146.894 30.877 146.933 29.8142C146.962 29.0424 146.939 28.2688 146.939 27.3593C146.714 27.6225 146.57 27.801 146.417 27.9731C145.437 29.0721 144.174 29.7081 142.743 30.0011C141.069 30.3442 139.406 30.2772 137.783 29.6672C135.834 28.9345 134.344 27.682 133.316 25.9171C132.508 24.5306 132.085 23.0345 132.132 21.4249C132.184 19.6311 132.75 18.0039 133.806 16.5421C134.676 15.3379 135.798 14.4119 137.136 13.7395C138.622 12.9929 140.193 12.8338 141.851 12.9975C143.185 13.1296 144.449 13.4197 145.618 14.0529C146.021 14.2714 146.375 14.5791 146.835 14.9056ZM146.939 21.6117C146.939 21.2408 146.909 20.866 146.945 20.4979C147.054 19.3578 146.408 18.6297 145.555 18.0197C144.472 17.2452 143.25 16.9932 141.923 17.1028C140.377 17.2302 139.136 17.8626 138.265 19.1356C137.56 20.1659 137.505 21.3095 137.74 22.4729C138.074 24.1382 139.406 25.547 141.003 25.904C142.761 26.2984 144.45 25.9692 145.888 24.8468C146.54 24.3372 147.086 23.7151 146.948 22.7713C146.892 22.392 146.939 21.9987 146.939 21.6117Z" fill="#898989"/>
<path d="M66.1683 28.2767C66.1683 31.3396 66.1683 34.3617 66.1683 37.4145C64.384 37.4145 62.6397 37.4145 60.8696 37.4145C60.8696 29.3841 60.8696 21.364 60.8696 13.2993C62.3244 13.2993 63.7592 13.2937 65.1932 13.3113C65.2947 13.3123 65.4533 13.4639 65.4847 13.5735C65.6347 14.0933 65.7496 14.6234 65.8778 15.1506C66.627 14.7043 67.3183 14.2468 68.0524 13.8665C69.0865 13.3309 70.2004 13.0538 71.3713 12.9134C73.7671 12.6269 75.8391 13.2667 77.6852 14.7647C79.1314 15.9382 79.8873 17.4873 80.2928 19.216C80.7874 21.3268 80.6983 23.4339 79.7866 25.4247C79.0051 27.131 77.7906 28.4515 75.9664 29.2344C74.4043 29.9049 72.8013 30.2656 71.1244 30.1838C69.3429 30.0973 67.6783 29.5989 66.3251 28.3687C66.2937 28.3417 66.252 28.3259 66.1683 28.2767ZM70.1927 26.1231C72.0027 26.1509 73.4129 25.5205 74.3977 24.1229C75.0928 23.1363 75.2286 22.0084 74.9844 20.8442C74.5202 18.6283 72.9885 17.201 70.604 17.2121C69.4265 17.2177 68.2784 17.4949 67.3526 18.2526C66.7229 18.7687 66.1646 19.3564 66.2387 20.3039C66.309 21.1966 66.2928 22.1005 66.2415 22.995C66.1978 23.7687 66.5454 24.3498 67.0353 24.8762C67.9014 25.806 69.0144 26.1546 70.1927 26.1231Z" fill="#898989"/>
<path d="M155.533 21.4956C155.498 18.9338 156.486 16.8137 158.417 15.1344C159.767 13.9618 161.382 13.2709 163.175 13.0264C163.915 12.925 164.67 12.8237 165.412 12.8478C168.226 12.9427 170.682 13.8725 172.537 16.0224C173.545 17.1913 174.141 18.5582 174.376 20.0831C174.776 22.6681 174.138 24.9863 172.513 27.0302C171.632 28.1395 170.425 28.8499 169.097 29.3669C167.612 29.9463 166.061 30.1899 164.478 30.0968C161.857 29.9425 159.473 29.1754 157.628 27.2339C156.522 26.0697 155.852 24.6869 155.671 23.0959C155.612 22.565 155.579 22.0302 155.533 21.4956ZM169.042 21.4668C169.023 21.3515 168.974 21.1571 168.963 20.9619C168.902 19.9213 168.526 18.9943 167.79 18.2579C166.909 17.3754 165.812 17.0443 164.537 17.1885C163.314 17.327 162.36 17.884 161.651 18.8232C160.737 20.032 160.672 21.3943 161.055 22.8011C161.346 23.8705 161.847 24.8152 162.821 25.4466C163.619 25.9645 164.514 26.026 165.44 25.9338C166.495 25.8279 167.388 25.3908 168.061 24.6069C168.809 23.7329 168.978 22.6459 169.042 21.4668Z" fill="#898989"/>
<path d="M101.511 21.5359C101.503 23.9657 100.577 26.0254 98.8731 27.7335C97.6966 28.9135 96.1887 29.5886 94.5496 29.9047C93.5764 30.0926 92.5631 30.2209 91.5765 30.18C88.757 30.0638 86.2235 29.1962 84.3357 27.0268C83.4061 25.9584 82.935 24.6659 82.6607 23.2841C82.258 21.2598 82.5647 19.3294 83.4773 17.5217C84.4259 15.6434 86.027 14.4187 88.023 13.6674C89.5301 13.1002 91.0893 12.8399 92.6894 12.9384C95.3359 13.1002 97.67 14.0115 99.4297 16.0144C100.515 17.2501 101.267 18.6729 101.377 20.3513C101.405 20.7474 101.466 21.1417 101.511 21.5359ZM96.0965 21.5564C96.0529 21.1631 96.0319 20.7651 95.9598 20.3764C95.7946 19.4884 95.3891 18.7008 94.7186 18.0871C93.7995 17.2464 92.6961 16.9107 91.4331 17.1042C90.1463 17.3004 89.1104 17.8741 88.4883 19.0179C87.8673 20.1616 87.7277 21.4039 88.0088 22.6545C88.3012 23.9546 89.0163 25.0145 90.2565 25.6376C90.9393 25.9807 91.6961 26.0011 92.4624 25.938C93.2999 25.8691 94.014 25.5762 94.6455 25.0416C95.7367 24.1192 96.087 22.9149 96.0965 21.5564Z" fill="#898989"/>
<path d="M183.007 29.715C181.206 29.715 179.472 29.715 177.715 29.715C177.715 24.4065 177.715 19.121 177.715 13.7994C179.329 13.7994 180.948 13.7994 182.583 13.7994C182.7 14.5806 182.818 15.369 182.943 16.2049C183.353 15.7335 183.701 15.2761 184.109 14.8771C185.236 13.779 186.585 13.1709 188.188 13.0016C189.539 12.8584 190.833 12.9365 192.066 13.4907C193.62 14.1881 194.642 15.3253 194.863 17.0298C194.948 17.6816 194.96 18.3464 194.961 19.0049C194.972 22.3933 194.966 25.7817 194.966 29.1702C194.966 29.3384 194.966 29.5067 194.966 29.7057C193.161 29.7057 191.386 29.7057 189.555 29.7057C189.555 29.5337 189.555 29.3691 189.555 29.2036C189.555 26.0012 189.567 22.7978 189.548 19.5952C189.543 18.8179 189.301 18.1038 188.609 17.6184C188.075 17.2446 187.46 17.1637 186.837 17.2352C184.63 17.4863 183.769 19.0355 183.31 20.8859C183.11 21.6921 183.038 22.543 183.019 23.3762C182.978 25.3094 183.007 27.2444 183.007 29.1785C183.007 29.3459 183.007 29.5133 183.007 29.715Z" fill="#898989"/>
<path d="M121.09 37.5247C119.381 37.5247 117.722 37.5247 116.017 37.5247C116.361 36.7837 116.689 36.0667 117.026 35.3553C117.906 33.4984 118.785 31.6405 119.678 29.7901C119.929 29.2722 119.969 28.823 119.681 28.2688C117.967 24.9613 116.292 21.6332 114.615 18.3071C113.867 16.824 113.141 15.3307 112.385 13.801C112.515 13.7871 112.629 13.7638 112.744 13.7638C114.484 13.7619 116.225 13.7684 117.964 13.7554C118.251 13.7536 118.43 13.8205 118.551 14.0884C119.663 16.5376 120.781 18.985 121.904 21.4297C122.169 22.0061 122.461 22.5705 122.787 23.2345C123.052 22.6757 123.277 22.2135 123.493 21.7467C124.019 20.6001 124.537 19.4509 125.065 18.3053C125.709 16.9104 126.365 15.5222 127.001 14.1236C127.128 13.8447 127.293 13.7489 127.608 13.7536C129.01 13.7712 130.413 13.761 131.89 13.761C128.271 21.7217 124.683 29.6172 121.09 37.5247Z" fill="#898989"/>
<path d="M104.813 29.7037C104.813 20.0508 104.813 10.4322 104.813 0.787598C106.566 0.787598 108.299 0.787598 110.071 0.787598C110.071 10.4099 110.071 20.0406 110.071 29.7037C108.339 29.7037 106.595 29.7037 104.813 29.7037Z" fill="#898989"/>
</svg>
