<svg width="340" height="43" viewBox="0 0 340 43" fill="none" xmlns="http://www.w3.org/2000/svg">
<path d="M13.2384 7.63265L12.5505 0.787148H5.24564L0.692383 7.63265H13.2384ZM28.4705 7.63265L28.1102 0.787148H18.5451L15.1056 7.63265H28.4705ZM39.2477 7.63265L42.7199 0.787148H33.7772L30.3377 7.63265H39.2477ZM14.0573 26.99L19.9209 15.821L20.6743 26.99H29.2895L37.7081 10.8097H4.65601L5.76975 26.99H14.0573ZM66.5991 7.69816L68.3353 0.787148H47.0758L41.6381 7.69816H66.5991ZM61.7183 26.99L63.52 20.0463H50.7119L51.498 16.9347H64.1751L65.6492 10.8097H44.0949L39.9347 26.99H61.7183ZM95.3359 7.69816C95.4342 7.07584 95.4997 6.51903 95.4997 5.99497C95.4997 2.19555 92.8136 0.787148 90.5206 0.787148H74.0765L68.5732 7.69816H95.3359ZM85.1157 26.99C89.4069 26.99 92.5843 25.6799 93.8291 19.7515C94.0911 18.5396 94.1894 17.426 94.1894 16.4434C94.1894 12.7095 92.4533 10.8097 89.7017 10.8097H70.768L66.4768 26.99H85.1157ZM77.8763 17.0329H83.9364C84.8536 17.2295 85.0829 18.0483 84.9846 18.6379C84.7881 19.6205 84.2967 20.0463 82.9864 20.0463H76.9919L77.8763 17.0329ZM124.919 7.69816C125.017 7.07584 125.082 6.51903 125.082 5.99497C125.082 2.19555 122.331 0.754395 120.038 0.754395H103.626L98.4836 7.69816H124.919ZM113.814 26.99C118.105 26.99 122.167 25.6799 123.412 19.7515C123.674 18.5396 123.772 17.426 123.772 16.4434C123.772 12.7095 121.545 10.8097 118.793 10.8097H100.351L98.6473 16.9674H113.093C114.273 16.9674 114.633 17.8518 114.6 18.6051C114.567 19.6205 113.814 20.079 112.504 20.079H97.6974L95.994 26.99H113.814ZM153.035 7.6654L154.968 0.754395H133.512L128.074 7.6654H153.035ZM135.575 26.9573L138.098 16.9347H150.578L152.085 10.8097H130.531L126.37 26.9573H135.575ZM179.842 7.6654L181.774 0.754395H160.319L154.881 7.6654H179.842ZM162.382 26.9573L164.904 16.9347H177.385L178.892 10.8097H157.338L153.178 26.9573H162.382ZM192.563 7.69816L194.365 0.787148H185.422L183.653 7.69816H192.563ZM187.813 26.9573L191.744 10.8425H182.9L178.87 26.9573H187.813ZM206.274 7.69816L208.108 0.787148H200.05L194.579 7.69816H206.274ZM211.285 26.99L215.38 20.079H203.096L205.324 10.8097H196.676L192.647 26.99H211.285ZM230.024 7.69816L231.826 0.787148H222.883L221.081 7.69816H230.024ZM225.274 26.9573L229.205 10.8425H220.361L216.332 26.9573H225.274ZM254.807 7.69816L253.431 0.787148H241.114L235.742 7.69816H254.807ZM236.79 26.99L242.686 17.9828H247.404L248.976 26.99H257.951L255.167 10.8097H237.838L227.225 26.99H236.79ZM282.513 7.6654L284.183 0.787148H263.743L258.207 7.6654H282.513ZM271.179 26.99L275.11 10.8097H266.265L262.236 26.99H271.179ZM308.119 7.69816L309.855 0.787148H288.596L283.158 7.69816H308.119ZM303.238 26.99L305.04 20.0463H292.232L293.018 16.9347H305.695L307.169 10.8097H285.615L281.455 26.99H303.238ZM333.647 7.6654L339.019 0.787148H320.38C313.992 0.787148 311.994 6.78106 311.732 7.6654H333.647ZM323.328 26.99C328.733 26.99 332.009 23.6492 332.631 20.9961L335.023 10.8097H311.241C311.208 11.039 311.143 11.4648 311.143 12.0216C311.143 13.0697 311.372 14.4782 312.322 15.297C314.386 17.0657 316.973 16.9019 317.792 16.9019H324.77C324.737 19.2929 322.608 20.079 320.74 20.079H309.57L307.965 26.99H323.328Z" fill="url(#paint0_linear_701_906)"/>
<path d="M36.8221 42.2252V37.8208H39.8115V35.7768H31.3184V37.8208H34.3078V42.2252H36.8221ZM47.4382 40.0134V42.2157H49.9574V35.7673H47.4382V37.9695H43.6618V35.7673H41.1475V42.2157H43.6618V40.0134H47.4382ZM51.9171 42.2252H59.465V40.57H54.4314V39.7448H59.465V38.2525H54.4314V37.4273H59.465V35.7768H51.9171V42.2252ZM65.4429 42.2252H67.9572V40.4932H72.6788V38.6076H67.9572V37.8208H73.3074V35.7768H65.4429V42.2252ZM80.8237 39.073C80.8381 40.1334 79.9648 40.3157 78.9379 40.3301C77.9062 40.3157 77.0378 40.1334 77.0473 39.073V35.7673H74.533V39.2314C74.5234 41.6687 76.5194 42.3692 78.9379 42.3741C81.3564 42.3692 83.3524 41.6687 83.3429 39.2314V35.7673H80.8237V39.073ZM90.173 42.2252V37.8208H93.1624V35.7768H84.6691V37.8208H87.6585V42.2252H90.173ZM100.799 39.073C100.813 40.1334 99.9397 40.3157 98.9128 40.3301C97.8811 40.3157 97.0127 40.1334 97.0222 39.073V35.7673H94.5079V39.2314C94.4982 41.6687 96.4945 42.3692 98.9128 42.3741C101.331 42.3692 103.327 41.6687 103.318 39.2314V35.7673H100.799V39.073ZM104.942 35.7721V42.2205H107.456V40.6468H109.702L110.916 42.2205H113.593L112.187 40.4116C112.609 40.215 112.95 39.9176 113.204 39.5288C113.464 39.1354 113.593 38.694 113.593 38.2095C113.612 36.8756 112.485 35.7577 111.155 35.7721H104.942ZM110.522 37.6577C110.829 37.6577 111.074 37.9024 111.074 38.2095C111.074 38.3582 111.021 38.4877 110.911 38.5981C110.805 38.7035 110.676 38.7564 110.522 38.7564H107.456V37.6577H110.522ZM114.867 42.2252H122.414V40.57H117.381V39.7448H122.414V38.2525H117.381V37.4273H122.414V35.7768H114.867V42.2252ZM132.797 35.609C130.369 35.6137 128.383 36.3143 128.392 38.7564V39.2266C128.383 41.664 130.369 42.3692 132.797 42.3741C135.221 42.3692 137.207 41.664 137.197 39.2266V38.7564C137.197 36.3191 135.225 35.609 132.797 35.609ZM134.683 39.0683C134.698 40.1237 133.824 40.3157 132.797 40.3301C131.766 40.3157 130.892 40.1237 130.907 39.0683V38.9099C130.892 37.8592 131.766 37.6672 132.797 37.6528C133.824 37.6672 134.698 37.8592 134.683 38.9099V39.0683ZM138.442 42.2252H140.957V40.4932H145.678V38.6076H140.957V37.8208H146.307V35.7768H138.442V42.2252ZM158.575 39.0011C158.575 39.6488 158.206 40.1814 157.553 40.1814H154.799V37.8208H157.553C158.206 37.8208 158.575 38.3485 158.575 39.0011ZM152.285 35.7768V42.2252H158.024C159.794 42.2493 161.109 40.7523 161.095 39.0011C161.109 37.2403 159.794 35.7529 158.024 35.7768H152.285ZM162.335 35.7673V42.2157H164.849V35.7673H162.335ZM170.465 39.7784H172.49C172.111 40.2677 171.477 40.3253 170.485 40.3253C169.453 40.3109 168.578 40.1287 168.593 39.0683V38.9099C168.578 37.8592 169.453 37.6672 170.485 37.6528C170.853 37.6528 171.189 37.6913 171.487 37.7679C171.785 37.8447 172.015 37.9887 172.174 38.2047H174.847C174.563 36.2184 172.721 35.609 170.485 35.609C168.056 35.6137 166.069 36.3143 166.079 38.7564V39.2266C166.069 41.664 168.056 42.3644 170.485 42.3741C171.579 42.3741 172.716 42.1101 173.464 41.3712L173.589 42.3741H174.847V38.6749H170.465V39.7784ZM176.494 35.7673V42.2157H179.008V35.7673H176.494ZM185.791 42.2252V37.8208H188.78V35.7768H180.286V37.8208H183.277V42.2252H185.791ZM192.558 37.6433L193.441 39.5481H191.671L192.558 37.6433ZM187.601 42.2252H190.432L190.94 41.1217H194.17L194.679 42.2252H197.51L194.05 35.7768H191.061L187.601 42.2252ZM198.197 35.7673V42.2157H205.746V40.1717H200.712V35.7673H198.197ZM211.723 42.2157H214.239V38.7756L216.758 42.2157H218.014L220.533 38.7756V42.2157H223.049V35.7673H219.906L217.385 38.9914L214.871 35.7673H211.723V42.2157ZM228.688 37.6433L229.571 39.5481H227.8L228.688 37.6433ZM223.732 42.2252H226.562L227.071 41.1217H230.3L230.809 42.2252H233.641L230.18 35.7768H227.191L223.732 42.2252ZM234.329 35.7721V42.2205H236.843V40.6468H239.088L240.302 42.2205H242.98L241.573 40.4116C241.996 40.215 242.336 39.9176 242.592 39.5288C242.851 39.1354 242.98 38.694 242.98 38.2095C243 36.8756 241.871 35.7577 240.543 35.7721H234.329ZM239.909 37.6577C240.215 37.6577 240.461 37.9024 240.461 38.2095C240.461 38.3582 240.408 38.4877 240.297 38.5981C240.192 38.7035 240.063 38.7564 239.909 38.7564H236.843V37.6577H239.909ZM247.866 40.0134L250.232 42.2157H253.533L250.188 38.9914L253.533 35.7673H250.232L247.866 37.9695H246.768V35.7673H244.253V42.2157H246.768V40.0134H247.866ZM254.379 42.2252H261.928V40.57H256.894V39.7448H261.928V38.2525H256.894V37.4273H261.928V35.7768H254.379V42.2252ZM268.714 42.2252V37.8208H271.705V35.7768H263.211V37.8208H266.2V42.2252H268.714ZM273.04 35.7673V42.2157H275.554V35.7673H273.04ZM283.671 39.1834L280.839 35.7673H277.38V42.2157H279.894V38.2766L283.358 42.2157H286.19V35.7673H283.671V39.1834ZM291.959 39.7784H293.985C293.605 40.2677 292.972 40.3253 291.978 40.3253C290.946 40.3109 290.073 40.1287 290.088 39.0683V38.9099C290.073 37.8592 290.946 37.6672 291.978 37.6528C292.348 37.6528 292.684 37.6913 292.981 37.7679C293.279 37.8447 293.51 37.9887 293.667 38.2047H296.34C296.056 36.2184 294.214 35.609 291.978 35.609C289.551 35.6137 287.564 36.3143 287.574 38.7564V39.2266C287.564 41.664 289.551 42.3644 291.978 42.3741C293.072 42.3741 294.209 42.1101 294.957 41.3712L295.084 42.3741H296.34V38.6749H291.959V39.7784ZM297.028 35.1436V39.3897H299.542V35.1436H297.028ZM297.028 40.3348V42.2205H299.542V40.3348H297.028Z" fill="url(#paint1_linear_701_906)"/>
<defs>
<linearGradient id="paint0_linear_701_906" x1="167.82" y1="-0.495122" x2="167.82" y2="51.604" gradientUnits="userSpaceOnUse">
<stop stop-color="#898989"/>
<stop offset="1" stop-color="white" stop-opacity="0"/>
</linearGradient>
<linearGradient id="paint1_linear_701_906" x1="167.82" y1="30.1016" x2="167.82" y2="79.9678" gradientUnits="userSpaceOnUse">
<stop stop-color="#898989"/>
<stop offset="1" stop-color="white" stop-opacity="0"/>
</linearGradient>
</defs>
</svg>
