<svg width="211" height="41" viewBox="0 0 211 41" fill="none" xmlns="http://www.w3.org/2000/svg">
<path d="M45.2562 3.79897C41.8632 2.22314 38.2353 1.07789 34.4424 0.425781C33.9766 1.26177 33.4324 2.38619 33.0572 3.28066C29.0252 2.67876 25.0304 2.67876 21.0726 3.28066C20.6974 2.38619 20.1409 1.26177 19.6709 0.425781C15.8739 1.07789 12.2418 2.22735 8.84882 3.80731C2.00517 14.073 0.149962 24.0837 1.07757 33.9523C5.61664 37.3171 10.0155 39.3611 14.3402 40.6986C15.408 39.2398 16.3603 37.6891 17.1807 36.0548C15.6182 35.4655 14.1217 34.7382 12.7077 33.8938C13.0828 33.618 13.4498 33.3295 13.8043 33.0327C22.4289 37.0371 31.7998 37.0371 40.3214 33.0327C40.6801 33.3295 41.0469 33.618 41.418 33.8938C39.9998 34.7423 38.4992 35.4696 36.9367 36.059C37.7571 37.6891 38.7053 39.244 39.7772 40.7028C44.106 39.3652 48.509 37.3213 53.0481 33.9523C54.1365 22.5121 51.1888 12.5933 45.2562 3.79897ZM18.3557 27.8832C15.7667 27.8832 13.6435 25.484 13.6435 22.5623C13.6435 19.6406 15.7214 17.2372 18.3557 17.2372C20.9902 17.2372 23.1133 19.6363 23.068 22.5623C23.0721 25.484 20.9902 27.8832 18.3557 27.8832ZM35.7699 27.8832C33.1809 27.8832 31.0577 25.484 31.0577 22.5623C31.0577 19.6406 33.1355 17.2372 35.7699 17.2372C38.4043 17.2372 40.5275 19.6363 40.4822 22.5623C40.4822 25.484 38.4043 27.8832 35.7699 27.8832Z" fill="#898989"/>
<path d="M71.2905 10.7007H82.5451C85.2583 10.7007 87.5503 11.1312 89.4307 11.9881C91.306 12.8449 92.7121 14.0403 93.644 15.5702C94.5752 17.1 95.0451 18.8514 95.0451 20.8242C95.0451 22.7553 94.5587 24.5067 93.5858 26.0741C92.613 27.6457 91.1328 28.8872 89.1418 29.8025C87.1508 30.7179 84.6849 31.1777 81.7375 31.1777H71.2905V10.7007ZM81.6218 25.9738C83.4483 25.9738 84.8544 25.5099 85.8352 24.5861C86.8167 23.6581 87.3075 22.3959 87.3075 20.795C87.3075 19.3111 86.8699 18.1282 85.9962 17.2421C85.1225 16.3559 83.7989 15.9087 82.03 15.9087H78.5092V25.9738H81.6218Z" fill="#898989"/>
<path d="M111.895 31.1526C110.337 30.743 108.93 30.1494 107.682 29.3678V24.5109C108.626 25.2506 109.891 25.861 111.478 26.3416C113.065 26.8181 114.6 27.0563 116.083 27.0563C116.776 27.0563 117.3 26.9644 117.654 26.7805C118.009 26.5966 118.186 26.3751 118.186 26.1201C118.186 25.8275 118.091 25.5851 117.897 25.3886C117.703 25.1922 117.328 25.0291 116.772 24.8912L113.309 24.1012C111.326 23.6331 109.92 22.9852 109.083 22.1534C108.246 21.3258 107.83 20.239 107.83 18.8931C107.83 17.7604 108.193 16.7782 108.927 15.938C109.656 15.0978 110.695 14.4499 112.043 13.9943C113.392 13.5346 114.966 13.3047 116.776 13.3047C118.392 13.3047 119.872 13.4802 121.221 13.8313C122.569 14.1825 123.682 14.6297 124.568 15.1772V19.7709C123.661 19.2233 122.622 18.7928 121.435 18.4667C120.251 18.1449 119.036 17.9861 117.782 17.9861C115.972 17.9861 115.069 18.2996 115.069 18.9224C115.069 19.215 115.21 19.4323 115.49 19.5786C115.77 19.7249 116.285 19.8754 117.032 20.0342L119.917 20.5609C121.802 20.8911 123.207 21.4721 124.131 22.2997C125.055 23.1273 125.516 24.352 125.516 25.9738C125.516 27.7502 124.754 29.1588 123.224 30.2038C121.694 31.2488 119.526 31.7712 116.714 31.7712C115.061 31.7671 113.453 31.5622 111.895 31.1526V31.1526Z" fill="#898989"/>
<path d="M132.327 30.5384C130.675 29.7191 129.425 28.6073 128.592 27.2029C127.76 25.7984 127.339 24.2185 127.339 22.4629C127.339 20.7074 127.772 19.1358 128.638 17.7523C129.504 16.3687 130.773 15.282 132.447 14.492C134.121 13.702 136.12 13.3091 138.45 13.3091C141.335 13.3091 143.731 13.9235 145.636 15.1524V20.5068C144.964 20.0386 144.18 19.6583 143.285 19.3657C142.391 19.0731 141.434 18.9268 140.412 18.9268C138.623 18.9268 137.225 19.257 136.215 19.9216C135.205 20.5862 134.698 21.4514 134.698 22.5256C134.698 23.5789 135.188 24.44 136.17 25.1172C137.151 25.7901 138.573 26.1287 140.441 26.1287C141.401 26.1287 142.35 25.9865 143.285 25.7065C144.217 25.4223 145.021 25.0754 145.693 24.6657V29.8445C143.579 31.1319 141.126 31.7756 138.334 31.7756C135.985 31.7673 133.981 31.3576 132.327 30.5384Z" fill="#898989"/>
<path d="M152.834 30.538C151.168 29.7187 149.899 28.5985 149.024 27.1732C148.151 25.7479 147.709 24.1596 147.709 22.404C147.709 20.6485 148.146 19.081 149.024 17.7059C149.902 16.3307 151.164 15.2523 152.822 14.4706C154.474 13.689 156.449 13.3003 158.737 13.3003C161.026 13.3003 163 13.689 164.654 14.4706C166.307 15.2523 167.569 16.3224 168.434 17.6891C169.3 19.056 169.733 20.6234 169.733 22.3999C169.733 24.1553 169.3 25.7437 168.434 27.169C167.569 28.5943 166.302 29.7145 164.637 30.5338C162.971 31.3531 161.005 31.7627 158.734 31.7627C156.462 31.7627 154.495 31.3572 152.834 30.538ZM161.603 25.3466C162.304 24.6361 162.658 23.6956 162.658 22.5252C162.658 21.3549 162.308 20.4228 161.603 19.7331C160.902 19.0392 159.945 18.6923 158.734 18.6923C157.501 18.6923 156.536 19.0392 155.831 19.7331C155.13 20.427 154.78 21.3549 154.78 22.5252C154.78 23.6956 155.13 24.6361 155.831 25.3466C156.532 26.0572 157.501 26.4167 158.734 26.4167C159.945 26.4125 160.902 26.0572 161.603 25.3466Z" fill="#898989"/>
<path d="M187.073 14.3872V20.7072C186.339 20.2181 185.391 19.9757 184.216 19.9757C182.677 19.9757 181.49 20.4481 180.666 21.3927C179.837 22.3373 179.425 23.8086 179.425 25.7982V31.1819H172.354V14.0654H179.281V19.5076C179.664 17.5179 180.287 16.0509 181.144 15.102C181.998 14.1574 183.102 13.6851 184.446 13.6851C185.465 13.6851 186.339 13.9191 187.073 14.3872Z" fill="#898989"/>
<path d="M210.564 10.1152V31.1816H203.493V27.3488C202.895 28.7908 201.988 29.8901 200.768 30.6424C199.547 31.3907 198.038 31.7669 196.249 31.7669C194.65 31.7669 193.257 31.3739 192.065 30.584C190.873 29.794 189.954 28.7114 189.307 27.3362C188.664 25.961 188.338 24.4062 188.338 22.6674C188.318 20.8742 188.66 19.2649 189.365 17.8396C190.066 16.4143 191.059 15.3025 192.337 14.5041C193.615 13.7057 195.075 13.3045 196.711 13.3045C200.08 13.3045 202.339 14.7883 203.493 17.7518V10.1152H210.564ZM202.438 25.2296C203.159 24.519 203.518 23.5953 203.518 22.4667C203.518 21.3758 203.167 20.4854 202.467 19.8041C201.765 19.1229 200.805 18.7801 199.597 18.7801C198.406 18.7801 197.454 19.127 196.74 19.8208C196.027 20.5147 195.672 21.4134 195.672 22.5252C195.672 23.6371 196.027 24.5441 196.74 25.2463C197.454 25.9485 198.393 26.2996 199.568 26.2996C200.759 26.2955 201.716 25.9401 202.438 25.2296V25.2296Z" fill="#898989"/>
<path d="M101.003 15.8875C102.95 15.8875 104.528 14.4503 104.528 12.6774C104.528 10.9045 102.95 9.46729 101.003 9.46729C99.0559 9.46729 97.478 10.9045 97.478 12.6774C97.478 14.4503 99.0559 15.8875 101.003 15.8875Z" fill="#898989"/>
<path d="M97.4751 18.0991C99.635 19.0437 102.315 19.0855 104.524 18.0991V31.274H97.4751V18.0991Z" fill="#898989"/>
</svg>
