<svg width="111" height="74" viewBox="0 0 111 74" fill="none" xmlns="http://www.w3.org/2000/svg">
<g filter="url(#filter0_d_701_909)">
<path d="M40.8799 9.76138V25.8103L48.9553 30.0199V20.5484L54.9126 23.7056L61.1346 20.5484V30.0199L69.2101 25.8103V9.76138L54.9126 2L40.8799 9.76138Z" stroke="#898989" stroke-width="3.44199"/>
<path d="M44.2356 49.729V40.4092H42.7264L37.2192 48.0212L31.6856 40.4092H30.044V49.729H31.6724V43.2157L36.4249 49.729H37.8679L42.6073 43.2025V49.729H44.2356ZM56.2051 49.729V48.3522H48.3812V45.4927H55.8079V44.1159H48.3812V41.786H56.2051V40.4092H46.6205V49.729H56.2051ZM64.4515 49.729V41.786H69.2041V40.4092H57.8058V41.786H62.6908V49.729H64.4515ZM81.3785 49.729L75.2227 40.4092H73.9385L67.743 49.729H69.7023L74.5872 42.2228L79.3928 49.729H81.3785ZM18.2061 65.729V56.4092H16.6969L11.1897 64.0212L5.65609 56.4092H4.01453V65.729H5.64285V59.2157L10.3954 65.729H11.8384L16.5778 59.2025V65.729H18.2061ZM33.366 65.729L27.2102 56.4092H25.9261L19.7305 65.729H21.6898L26.5747 58.2228L31.3803 65.729H33.366ZM45.6284 65.729L43.4308 61.5457C45.0856 61.3868 45.7343 60.5263 45.7343 59.3216V58.6597C45.7343 57.3226 44.9268 56.4092 42.8086 56.4092H34.8921V65.729H36.6528V61.5721H41.5642L43.7486 65.729H45.6284ZM43.9736 59.3349C43.9736 59.8909 43.6029 60.1954 42.8086 60.1954H36.6528V57.786H42.8086C43.6029 57.786 43.9736 58.0904 43.9736 58.6465V59.3349ZM58.1491 65.729L54.0187 60.7514L58.1623 56.4092H56.0706L52.5625 60.1954H49.5706V56.4092H47.8099V65.729H49.5706V61.5721H52.6022L56.1236 65.729H58.1491ZM69.4331 65.729V64.3522H61.6092V61.4927H69.036V60.1159H61.6092V57.786H69.4331V56.4092H59.8485V65.729H69.4331ZM77.6795 65.729V57.786H82.4321V56.4092H71.0339V57.786H75.9188V65.729H77.6795ZM93.8595 65.729V64.3522H86.0356V61.4927H93.4624V60.1159H86.0356V57.786H93.8595V56.4092H84.2749V65.729H93.8595ZM106.753 65.729L104.555 61.5457C106.21 61.3868 106.859 60.5263 106.859 59.3216V58.6597C106.859 57.3226 106.051 56.4092 103.933 56.4092H96.0163V65.729H97.777V61.5721H102.688L104.873 65.729H106.753ZM105.098 59.3349C105.098 59.8909 104.727 60.1954 103.933 60.1954H97.777V57.786H103.933C104.727 57.786 105.098 58.0904 105.098 58.6465V59.3349Z" fill="#898989"/>
</g>
<defs>
<filter id="filter0_d_701_909" x="-0.817356" y="0.0375977" width="112.2" height="76.7626" filterUnits="userSpaceOnUse" color-interpolation-filters="sRGB">
<feFlood flood-opacity="0" result="BackgroundImageFix"/>
<feColorMatrix in="SourceAlpha" type="matrix" values="0 0 0 0 0 0 0 0 0 0 0 0 0 0 0 0 0 0 127 0" result="hardAlpha"/>
<feOffset dy="3.83591"/>
<feGaussianBlur stdDeviation="1.91796"/>
<feComposite in2="hardAlpha" operator="out"/>
<feColorMatrix type="matrix" values="0 0 0 0 0 0 0 0 0 0 0 0 0 0 0 0 0 0 0.25 0"/>
<feBlend mode="normal" in2="BackgroundImageFix" result="effect1_dropShadow_701_909"/>
<feBlend mode="normal" in="SourceGraphic" in2="effect1_dropShadow_701_909" result="shape"/>
</filter>
</defs>
</svg>
