<svg width="336" height="43" viewBox="0 0 336 43" fill="none" xmlns="http://www.w3.org/2000/svg">
<path d="M9.54602 7.63265L8.85812 0.787148H1.55326L-3 7.63265H9.54602ZM24.7781 7.63265L24.4178 0.787148H14.8527L11.4132 7.63265H24.7781ZM35.5553 7.63265L39.0275 0.787148H30.0848L26.6453 7.63265H35.5553ZM10.365 26.99L16.2285 15.821L16.9819 26.99H25.5971L34.0157 10.8097H0.963626L2.07737 26.99H10.365ZM62.9067 7.69816L64.6429 0.787148H43.3834L37.9457 7.69816H62.9067ZM58.0259 26.99L59.8276 20.0463H47.0195L47.8057 16.9347H60.4827L61.9568 10.8097H40.4025L36.2424 26.99H58.0259ZM91.6435 7.69816C91.7418 7.07584 91.8073 6.51903 91.8073 5.99497C91.8073 2.19555 89.1212 0.787148 86.8282 0.787148H70.3841L64.8809 7.69816H91.6435ZM81.4233 26.99C85.7145 26.99 88.8919 25.6799 90.1367 19.7515C90.3988 18.5396 90.497 17.426 90.497 16.4434C90.497 12.7095 88.7609 10.8097 86.0093 10.8097H67.0756L62.7844 26.99H81.4233ZM74.1839 17.0329H80.244C81.1612 17.2295 81.3905 18.0483 81.2922 18.6379C81.0957 19.6205 80.6043 20.0463 79.294 20.0463H73.2995L74.1839 17.0329ZM121.226 7.69816C121.325 7.07584 121.39 6.51903 121.39 5.99497C121.39 2.19555 118.638 0.754395 116.345 0.754395H99.9341L94.7912 7.69816H121.226ZM110.122 26.99C114.413 26.99 118.475 25.6799 119.719 19.7515C119.981 18.5396 120.08 17.426 120.08 16.4434C120.08 12.7095 117.852 10.8097 115.101 10.8097H96.6583L94.955 16.9674H109.401C110.58 16.9674 110.94 17.8518 110.908 18.6051C110.875 19.6205 110.122 20.079 108.811 20.079H94.005L92.3016 26.99H110.122ZM149.342 7.6654L151.275 0.754395H129.819L124.381 7.6654H149.342ZM131.883 26.9573L134.405 16.9347H146.886L148.393 10.8097H126.838L122.678 26.9573H131.883ZM176.149 7.6654L178.082 0.754395H156.626L151.189 7.6654H176.149ZM158.69 26.9573L161.212 16.9347H173.693L175.199 10.8097H153.645L149.485 26.9573H158.69ZM188.871 7.69816L190.672 0.787148H181.73L179.961 7.69816H188.871ZM184.121 26.9573L188.052 10.8425H179.207L175.178 26.9573H184.121ZM202.581 7.69816L204.416 0.787148H196.357L190.887 7.69816H202.581ZM207.593 26.99L211.688 20.079H199.404L201.631 10.8097H192.983L188.954 26.99H207.593ZM226.332 7.69816L228.133 0.787148H219.191L217.389 7.69816H226.332ZM221.582 26.9573L225.513 10.8425H216.668L212.639 26.9573H221.582ZM251.114 7.69816L249.738 0.787148H237.422L232.05 7.69816H251.114ZM233.098 26.99L238.994 17.9828H243.711L245.284 26.99H254.259L251.475 10.8097H234.146L223.533 26.99H233.098ZM278.82 7.6654L280.491 0.787148H260.05L254.514 7.6654H278.82ZM267.486 26.99L271.417 10.8097H262.573L258.544 26.99H267.486ZM304.427 7.69816L306.163 0.787148H284.903L279.466 7.69816H304.427ZM299.546 26.99L301.348 20.0463H288.539L289.326 16.9347H302.003L303.477 10.8097H281.922L277.762 26.99H299.546ZM329.954 7.6654L335.327 0.787148H316.688C310.3 0.787148 308.302 6.78106 308.04 7.6654H329.954ZM319.636 26.99C325.041 26.99 328.317 23.6492 328.939 20.9961L331.33 10.8097H307.548C307.516 11.039 307.45 11.4648 307.45 12.0216C307.45 13.0697 307.68 14.4782 308.629 15.297C310.693 17.0657 313.281 16.9019 314.1 16.9019H321.077C321.044 19.2929 318.915 20.079 317.048 20.079H305.878L304.273 26.99H319.636Z" fill="url(#paint0_linear_701_491)"/>
<path d="M33.1297 42.2252V37.8208H36.1191V35.7768H27.626V37.8208H30.6154V42.2252H33.1297ZM43.7458 40.0134V42.2157H46.265V35.7673H43.7458V37.9695H39.9694V35.7673H37.4551V42.2157H39.9694V40.0134H43.7458ZM48.2247 42.2252H55.7726V40.57H50.739V39.7448H55.7726V38.2525H50.739V37.4273H55.7726V35.7768H48.2247V42.2252ZM61.7505 42.2252H64.2648V40.4932H68.9864V38.6076H64.2648V37.8208H69.615V35.7768H61.7505V42.2252ZM77.1313 39.073C77.1458 40.1334 76.2724 40.3157 75.2455 40.3301C74.2138 40.3157 73.3454 40.1334 73.3549 39.073V35.7673H70.8406V39.2314C70.831 41.6687 72.827 42.3692 75.2455 42.3741C77.664 42.3692 79.66 41.6687 79.6505 39.2314V35.7673H77.1313V39.073ZM86.4806 42.2252V37.8208H89.47V35.7768H80.9767V37.8208H83.9661V42.2252H86.4806ZM97.1062 39.073C97.1206 40.1334 96.2473 40.3157 95.2204 40.3301C94.1887 40.3157 93.3203 40.1334 93.3298 39.073V35.7673H90.8155V39.2314C90.8058 41.6687 92.8021 42.3692 95.2204 42.3741C97.6388 42.3692 99.6349 41.6687 99.6254 39.2314V35.7673H97.1062V39.073ZM101.249 35.7721V42.2205H103.763V40.6468H106.009L107.223 42.2205H109.901L108.495 40.4116C108.917 40.215 109.258 39.9176 109.512 39.5288C109.771 39.1354 109.901 38.694 109.901 38.2095C109.92 36.8756 108.792 35.7577 107.463 35.7721H101.249ZM106.83 37.6577C107.137 37.6577 107.382 37.9024 107.382 38.2095C107.382 38.3582 107.329 38.4877 107.218 38.5981C107.113 38.7035 106.983 38.7564 106.83 38.7564H103.763V37.6577H106.83ZM111.174 42.2252H118.722V40.57H113.689V39.7448H118.722V38.2525H113.689V37.4273H118.722V35.7768H111.174V42.2252ZM129.105 35.609C126.677 35.6137 124.69 36.3143 124.7 38.7564V39.2266C124.69 41.664 126.677 42.3692 129.105 42.3741C131.528 42.3692 133.515 41.664 133.505 39.2266V38.7564C133.505 36.3191 131.533 35.609 129.105 35.609ZM130.991 39.0683C131.005 40.1237 130.132 40.3157 129.105 40.3301C128.073 40.3157 127.2 40.1237 127.214 39.0683V38.9099C127.2 37.8592 128.073 37.6672 129.105 37.6528C130.132 37.6672 131.005 37.8592 130.991 38.9099V39.0683ZM134.75 42.2252H137.264V40.4932H141.986V38.6076H137.264V37.8208H142.614V35.7768H134.75V42.2252ZM154.883 39.0011C154.883 39.6488 154.514 40.1814 153.861 40.1814H151.107V37.8208H153.861C154.514 37.8208 154.883 38.3485 154.883 39.0011ZM148.592 35.7768V42.2252H154.331C156.102 42.2493 157.417 40.7523 157.402 39.0011C157.417 37.2403 156.102 35.7529 154.331 35.7768H148.592ZM158.642 35.7673V42.2157H161.157V35.7673H158.642ZM166.773 39.7784H168.797C168.419 40.2677 167.785 40.3253 166.792 40.3253C165.761 40.3109 164.886 40.1287 164.901 39.0683V38.9099C164.886 37.8592 165.761 37.6672 166.792 37.6528C167.161 37.6528 167.497 37.6913 167.795 37.7679C168.093 37.8447 168.322 37.9887 168.481 38.2047H171.154C170.871 36.2184 169.028 35.609 166.792 35.609C164.364 35.6137 162.377 36.3143 162.387 38.7564V39.2266C162.377 41.664 164.364 42.3644 166.792 42.3741C167.887 42.3741 169.023 42.1101 169.772 41.3712L169.896 42.3741H171.154V38.6749H166.773V39.7784ZM172.802 35.7673V42.2157H175.316V35.7673H172.802ZM182.098 42.2252V37.8208H185.087V35.7768H176.593V37.8208H179.584V42.2252H182.098ZM188.866 37.6433L189.749 39.5481H187.978L188.866 37.6433ZM183.908 42.2252H186.74L187.248 41.1217H190.478L190.987 42.2252H193.817L190.358 35.7768H187.369L183.908 42.2252ZM194.505 35.7673V42.2157H202.054V40.1717H197.019V35.7673H194.505ZM208.031 42.2157H210.546V38.7756L213.065 42.2157H214.322L216.841 38.7756V42.2157H219.356V35.7673H216.213L213.693 38.9914L211.179 35.7673H208.031V42.2157ZM224.996 37.6433L225.878 39.5481H224.108L224.996 37.6433ZM220.039 42.2252H222.87L223.379 41.1217H226.607L227.117 42.2252H229.948L226.488 35.7768H223.499L220.039 42.2252ZM230.636 35.7721V42.2205H233.15V40.6468H235.396L236.61 42.2205H239.288L237.881 40.4116C238.303 40.215 238.644 39.9176 238.899 39.5288C239.158 39.1354 239.288 38.694 239.288 38.2095C239.307 36.8756 238.179 35.7577 236.85 35.7721H230.636ZM236.217 37.6577C236.523 37.6577 236.769 37.9024 236.769 38.2095C236.769 38.3582 236.716 38.4877 236.605 38.5981C236.5 38.7035 236.371 38.7564 236.217 38.7564H233.15V37.6577H236.217ZM244.173 40.0134L246.54 42.2157H249.84L246.496 38.9914L249.84 35.7673H246.54L244.173 37.9695H243.076V35.7673H240.56V42.2157H243.076V40.0134H244.173ZM250.687 42.2252H258.236V40.57H253.201V39.7448H258.236V38.2525H253.201V37.4273H258.236V35.7768H250.687V42.2252ZM265.022 42.2252V37.8208H268.012V35.7768H259.518V37.8208H262.508V42.2252H265.022ZM269.347 35.7673V42.2157H271.861V35.7673H269.347ZM279.979 39.1834L277.147 35.7673H273.688V42.2157H276.202V38.2766L279.666 42.2157H282.498V35.7673H279.979V39.1834ZM288.266 39.7784H290.292C289.912 40.2677 289.28 40.3253 288.286 40.3253C287.254 40.3109 286.381 40.1287 286.396 39.0683V38.9099C286.381 37.8592 287.254 37.6672 288.286 37.6528C288.656 37.6528 288.992 37.6913 289.288 37.7679C289.586 37.8447 289.817 37.9887 289.974 38.2047H292.647C292.364 36.2184 290.522 35.609 288.286 35.609C285.859 35.6137 283.872 36.3143 283.882 38.7564V39.2266C283.872 41.664 285.859 42.3644 288.286 42.3741C289.38 42.3741 290.517 42.1101 291.265 41.3712L291.391 42.3741H292.647V38.6749H288.266V39.7784ZM293.335 35.1436V39.3897H295.849V35.1436H293.335ZM293.335 40.3348V42.2205H295.849V40.3348H293.335Z" fill="url(#paint1_linear_701_491)"/>
<defs>
<linearGradient id="paint0_linear_701_491" x1="164.127" y1="-0.495122" x2="164.127" y2="51.604" gradientUnits="userSpaceOnUse">
<stop stop-color="#898989"/>
<stop offset="1" stop-color="white" stop-opacity="0"/>
</linearGradient>
<linearGradient id="paint1_linear_701_491" x1="164.128" y1="30.1016" x2="164.128" y2="79.9678" gradientUnits="userSpaceOnUse">
<stop stop-color="#898989"/>
<stop offset="1" stop-color="white" stop-opacity="0"/>
</linearGradient>
</defs>
</svg>
