<svg width="195" height="43" viewBox="0 0 195 43" fill="none" xmlns="http://www.w3.org/2000/svg">
<path d="M27.5033 26.9227C27.5033 28.2403 27.5412 29.4928 27.4928 30.7435C27.4444 31.9849 28.0189 32.8952 29.0378 33.4875C30.9152 34.5783 32.8438 35.5862 34.7591 36.6147C35.874 37.2126 36.9737 37.0694 38.0372 36.4687C39.7806 35.484 41.5194 34.4909 43.259 33.4996C44.3501 32.8785 44.9797 31.9923 44.972 30.7155C44.9607 28.7964 44.9312 26.8762 44.9816 24.9578C45.0187 23.5557 44.4336 22.5467 43.2201 21.8688C41.4301 20.8692 39.6325 19.8845 37.8301 18.9072C36.514 18.1931 35.2758 18.4701 34.0516 19.1899C32.7507 19.9543 31.4175 20.6656 30.1004 21.403C28.3798 22.3672 26.6619 23.3362 24.9412 24.3004C23.5833 25.0611 22.2254 25.8218 20.8646 26.5768C19.18 27.5104 17.4793 28.417 15.8089 29.3756C14.4017 30.1837 13.0864 30.0572 11.738 29.2297C10.6232 28.5462 9.45227 27.952 8.30713 27.316C6.44775 26.2829 4.58746 25.2526 2.73393 24.2102C2.21155 23.9164 1.67978 23.6244 1.20886 23.2618C0.511821 22.7243 0.274471 21.9358 0.270574 21.1092C0.252581 17.2706 0.249727 13.4322 0.269657 9.59363C0.275387 8.3737 0.851743 7.47731 1.98279 6.87661C3.87529 5.87136 5.72894 4.79735 7.60436 3.76054C9.16931 2.89583 10.739 2.04033 12.3087 1.18484C13.5508 0.508866 14.7407 0.675247 15.9257 1.36245C17.5381 2.29603 19.1715 3.19522 20.7943 4.11116C22.5387 5.09585 24.2879 6.07133 26.0209 7.07467C26.9753 7.62695 27.376 8.51963 27.4016 9.56757C27.4301 10.7587 27.4215 11.9518 27.394 13.1429C27.3893 13.3252 27.2383 13.579 27.0778 13.672C25.7028 14.4643 24.3097 15.2268 22.9234 15.9995C22.8312 16.0507 22.7496 16.1185 22.6119 16.2153C22.5928 16.0562 22.5691 15.9446 22.5691 15.8331C22.5662 14.7647 22.5207 13.6944 22.5786 12.6297C22.6555 11.2218 22.0573 10.212 20.8399 9.53229C19.0233 8.51783 17.2001 7.51348 15.3664 6.52789C14.1518 5.87506 12.9781 6.10571 11.833 6.75752C10.4797 7.52651 9.10857 8.26393 7.75633 9.03293C7.16851 9.36771 6.57118 9.70339 6.04605 10.1209C5.35291 10.6704 5.08886 11.4366 5.09654 12.3135C5.11258 14.3099 5.12874 16.3073 5.09173 18.3037C5.06892 19.5349 5.6235 20.4489 6.63868 21.0477C8.5227 22.158 10.4484 23.2022 12.3752 24.241C13.5963 24.8993 14.7815 24.703 15.9466 24.0121C17.4289 23.1325 18.9388 22.2965 20.4429 21.4514C22.2975 20.4098 24.1569 19.3777 26.0152 18.3418C27.846 17.3217 29.6778 16.3045 31.5077 15.2826C32.5438 14.7042 33.5779 14.1249 34.6091 13.5381C35.855 12.8287 37.0457 13.0361 38.2242 13.712C39.3476 14.3555 40.4805 14.9832 41.6105 15.6137C43.3596 16.5899 45.1107 17.5617 46.8589 18.5381C47.4638 18.8756 48.0754 19.2047 48.6651 19.5674C49.5093 20.0863 49.9081 20.847 49.9062 21.8279C49.8995 25.7287 49.8758 29.6295 49.9186 33.5294C49.9328 34.8265 49.2984 35.6532 48.2378 36.2484C45.3615 37.8626 42.4737 39.4582 39.5898 41.0586C39.0514 41.3571 38.5034 41.6397 37.9631 41.9372C36.6298 42.6709 35.3821 42.4096 34.1438 41.676C33.0308 41.0167 31.8895 40.4029 30.7575 39.7735C28.8717 38.7255 26.979 37.6896 25.0988 36.6323C24.55 36.3236 24.004 35.9982 23.5101 35.6142C22.8835 35.1259 22.6936 34.396 22.6708 33.6568C22.6327 32.4043 22.6537 31.1499 22.6688 29.8963C22.6708 29.7615 22.76 29.5682 22.8702 29.504C24.3117 28.6736 25.7646 27.8618 27.2146 27.0463C27.282 27.0082 27.3542 26.9859 27.5033 26.9227Z" fill="#898989"/>
<path d="M146.527 14.9056C146.661 14.6052 146.77 14.3077 146.927 14.0371C146.994 13.918 147.159 13.7777 147.282 13.7758C148.815 13.7581 150.348 13.7647 151.945 13.7647C151.945 13.9682 151.945 14.1469 151.945 14.3263C151.945 19.5419 151.938 24.7585 151.951 29.9741C151.955 31.5502 151.362 32.9088 150.427 34.138C149.555 35.2827 148.414 36.1354 147.102 36.7435C145.629 37.4261 144.082 37.8353 142.431 37.8231C141.131 37.8138 139.836 37.8305 138.573 37.4559C137.167 37.0392 135.848 36.4628 134.691 35.5627C134.329 35.2799 133.964 35 133.578 34.7016C134.632 33.5169 135.646 32.3759 136.672 31.2219C137.637 32.0459 138.63 32.76 139.847 33.0994C141.756 33.6322 143.587 33.4676 145.259 32.3946C146.176 31.8069 146.586 30.877 146.625 29.8142C146.654 29.0424 146.631 28.2688 146.631 27.3593C146.406 27.6225 146.262 27.801 146.108 27.9731C145.129 29.0721 143.866 29.7081 142.435 30.0011C140.761 30.3442 139.098 30.2772 137.475 29.6672C135.526 28.9345 134.036 27.682 133.008 25.9171C132.2 24.5306 131.777 23.0345 131.824 21.4249C131.875 19.6311 132.442 18.0039 133.498 16.5421C134.368 15.3379 135.49 14.4119 136.828 13.7395C138.314 12.9929 139.885 12.8338 141.542 12.9975C142.877 13.1296 144.141 13.4197 145.31 14.0529C145.713 14.2714 146.067 14.5791 146.527 14.9056ZM146.631 21.6117C146.631 21.2408 146.601 20.866 146.637 20.4979C146.746 19.3578 146.1 18.6297 145.247 18.0197C144.164 17.2452 142.942 16.9932 141.615 17.1028C140.069 17.2302 138.827 17.8626 137.956 19.1356C137.252 20.1659 137.197 21.3095 137.432 22.4729C137.766 24.1382 139.098 25.547 140.694 25.904C142.452 26.2984 144.142 25.9692 145.58 24.8468C146.232 24.3372 146.778 23.7151 146.64 22.7713C146.584 22.392 146.631 21.9987 146.631 21.6117Z" fill="#898989"/>
<path d="M65.8602 28.2767C65.8602 31.3396 65.8602 34.3617 65.8602 37.4145C64.0759 37.4145 62.3316 37.4145 60.5615 37.4145C60.5615 29.3841 60.5615 21.364 60.5615 13.2993C62.0163 13.2993 63.4511 13.2937 64.8851 13.3113C64.9866 13.3123 65.1452 13.4639 65.1766 13.5735C65.3266 14.0933 65.4415 14.6234 65.5697 15.1506C66.3189 14.7043 67.0102 14.2468 67.7443 13.8665C68.7783 13.3309 69.8923 13.0538 71.0631 12.9134C73.459 12.6269 75.531 13.2667 77.3771 14.7647C78.8233 15.9382 79.5792 17.4873 79.9847 19.216C80.4793 21.3268 80.3902 23.4339 79.4785 25.4247C78.697 27.131 77.4825 28.4515 75.6583 29.2344C74.0962 29.9049 72.4932 30.2656 70.8163 30.1838C69.0348 30.0973 67.3702 29.5989 66.017 28.3687C65.9856 28.3417 65.9439 28.3259 65.8602 28.2767ZM69.8846 26.1231C71.6946 26.1509 73.1048 25.5205 74.0896 24.1229C74.7847 23.1363 74.9205 22.0084 74.6763 20.8442C74.2121 18.6283 72.6804 17.201 70.2959 17.2121C69.1184 17.2177 67.9703 17.4949 67.0445 18.2526C66.4148 18.7687 65.8565 19.3564 65.9306 20.3039C66.0009 21.1966 65.9847 22.1005 65.9334 22.995C65.8897 23.7687 66.2373 24.3498 66.7272 24.8762C67.5933 25.806 68.7063 26.1546 69.8846 26.1231Z" fill="#898989"/>
<path d="M155.226 21.4956C155.19 18.9338 156.178 16.8137 158.109 15.1344C159.459 13.9618 161.074 13.2709 162.867 13.0264C163.608 12.925 164.362 12.8237 165.105 12.8478C167.918 12.9427 170.374 13.8725 172.23 16.0224C173.237 17.1913 173.833 18.5582 174.068 20.0831C174.468 22.6681 173.831 24.9863 172.206 27.0302C171.324 28.1395 170.117 28.8499 168.789 29.3669C167.304 29.9463 165.753 30.1899 164.171 30.0968C161.55 29.9425 159.166 29.1754 157.321 27.2339C156.215 26.0697 155.544 24.6869 155.363 23.0959C155.305 22.565 155.271 22.0302 155.226 21.4956ZM168.734 21.4668C168.716 21.3515 168.667 21.1571 168.655 20.9619C168.594 19.9213 168.218 18.9943 167.483 18.2579C166.601 17.3754 165.505 17.0443 164.229 17.1885C163.006 17.327 162.053 17.884 161.343 18.8232C160.43 20.032 160.364 21.3943 160.747 22.8011C161.038 23.8705 161.539 24.8152 162.513 25.4466C163.311 25.9645 164.206 26.026 165.132 25.9338C166.188 25.8279 167.08 25.3908 167.753 24.6069C168.502 23.7329 168.67 22.6459 168.734 21.4668Z" fill="#898989"/>
<path d="M101.203 21.5359C101.195 23.9657 100.269 26.0254 98.565 27.7335C97.3885 28.9135 95.8806 29.5886 94.2415 29.9047C93.2682 30.0926 92.255 30.2209 91.2684 30.18C88.4489 30.0638 85.9154 29.1962 84.0276 27.0268C83.098 25.9584 82.6269 24.6659 82.3525 23.2841C81.9499 21.2598 82.2566 19.3294 83.1692 17.5217C84.1178 15.6434 85.7189 14.4187 87.7149 13.6674C89.222 13.1002 90.7812 12.8399 92.3813 12.9384C95.0278 13.1002 97.3619 14.0115 99.1215 16.0144C100.207 17.2501 100.959 18.6729 101.069 20.3513C101.097 20.7474 101.157 21.1417 101.203 21.5359ZM95.7884 21.5564C95.7448 21.1631 95.7238 20.7651 95.6517 20.3764C95.4865 19.4884 95.081 18.7008 94.4105 18.0871C93.4914 17.2464 92.388 16.9107 91.125 17.1042C89.8382 17.3004 88.8023 17.8741 88.1802 19.0179C87.5592 20.1616 87.4196 21.4039 87.7007 22.6545C87.9931 23.9546 88.7082 25.0145 89.9484 25.6376C90.6312 25.9807 91.388 26.0011 92.1543 25.938C92.9918 25.8691 93.7059 25.5762 94.3374 25.0416C95.4286 24.1192 95.7789 22.9149 95.7884 21.5564Z" fill="#898989"/>
<path d="M182.699 29.715C180.898 29.715 179.164 29.715 177.407 29.715C177.407 24.4065 177.407 19.121 177.407 13.7994C179.021 13.7994 180.64 13.7994 182.275 13.7994C182.391 14.5806 182.51 15.369 182.634 16.2049C183.045 15.7335 183.393 15.2761 183.801 14.8771C184.928 13.779 186.277 13.1709 187.88 13.0016C189.231 12.8584 190.525 12.9365 191.758 13.4907C193.312 14.1881 194.333 15.3253 194.555 17.0298C194.639 17.6816 194.652 18.3464 194.653 19.0049C194.664 22.3933 194.658 25.7817 194.658 29.1702C194.658 29.3384 194.658 29.5067 194.658 29.7057C192.853 29.7057 191.078 29.7057 189.247 29.7057C189.247 29.5337 189.247 29.3691 189.247 29.2036C189.247 26.0012 189.259 22.7978 189.24 19.5952C189.235 18.8179 188.993 18.1038 188.301 17.6184C187.767 17.2446 187.152 17.1637 186.529 17.2352C184.321 17.4863 183.461 19.0355 183.002 20.8859C182.802 21.6921 182.73 22.543 182.711 23.3762C182.67 25.3094 182.699 27.2444 182.699 29.1785C182.699 29.3459 182.699 29.5133 182.699 29.715Z" fill="#898989"/>
<path d="M120.782 37.5247C119.073 37.5247 117.414 37.5247 115.709 37.5247C116.053 36.7837 116.381 36.0667 116.718 35.3553C117.598 33.4984 118.477 31.6405 119.37 29.7901C119.621 29.2722 119.661 28.823 119.373 28.2688C117.658 24.9613 115.984 21.6332 114.307 18.3071C113.559 16.824 112.832 15.3307 112.077 13.801C112.207 13.7871 112.321 13.7638 112.436 13.7638C114.176 13.7619 115.916 13.7684 117.656 13.7554C117.943 13.7536 118.121 13.8205 118.243 14.0884C119.355 16.5376 120.473 18.985 121.596 21.4297C121.861 22.0061 122.153 22.5705 122.479 23.2345C122.744 22.6757 122.969 22.2135 123.185 21.7467C123.711 20.6001 124.229 19.4509 124.757 18.3053C125.401 16.9104 126.057 15.5222 126.693 14.1236C126.82 13.8447 126.985 13.7489 127.3 13.7536C128.702 13.7712 130.105 13.761 131.582 13.761C127.963 21.7217 124.374 29.6172 120.782 37.5247Z" fill="#898989"/>
<path d="M104.505 29.7037C104.505 20.0508 104.505 10.4322 104.505 0.787598C106.258 0.787598 107.991 0.787598 109.763 0.787598C109.763 10.4099 109.763 20.0406 109.763 29.7037C108.031 29.7037 106.287 29.7037 104.505 29.7037Z" fill="#898989"/>
</svg>
