<svg width="181" height="43" viewBox="0 0 181 43" fill="none" xmlns="http://www.w3.org/2000/svg">
<path d="M42.5067 21.5642C42.5067 33.0564 33.1941 42.3739 21.7077 42.3739C10.2214 42.3739 0.908691 33.0564 0.908691 21.5642C0.908691 10.0719 10.2214 0.754395 21.7077 0.754395C33.1965 0.754395 42.5067 10.0719 42.5067 21.5642Z" fill="#898989"/>
<path d="M11.1699 22.2629L11.2596 22.1218L16.6702 13.6531C16.7493 13.5291 16.9352 13.5419 16.995 13.6766C17.899 15.7034 18.6789 18.2242 18.3135 19.7935C18.1575 20.4392 17.7302 21.3136 17.2493 22.1218C17.1874 22.2394 17.119 22.3548 17.0463 22.466C17.0121 22.5173 16.9544 22.5472 16.8925 22.5472H11.328C11.1784 22.5472 11.0908 22.3848 11.1699 22.2629Z" fill="#898989"/>
<path d="M35.2874 23.8368V25.1774C35.2874 25.2543 35.2404 25.3227 35.172 25.3527C34.7532 25.5322 33.3193 26.1907 32.7231 27.0203C31.2016 29.1391 30.0392 32.1686 27.4407 32.1686H16.6001C12.758 32.1686 9.64453 29.0429 9.64453 25.1859V25.0619C9.64453 24.9593 9.72785 24.8759 9.83043 24.8759H15.8736C15.9933 24.8759 16.0809 24.9871 16.0702 25.1046C16.0275 25.498 16.1001 25.9 16.286 26.2656C16.645 26.9947 17.3887 27.4501 18.1921 27.4501H21.1838V25.1132H18.2263C18.0746 25.1132 17.9849 24.9379 18.0725 24.8139C18.1045 24.7647 18.1409 24.7134 18.1793 24.6557C18.4593 24.258 18.8589 23.6401 19.2563 22.9367C19.5277 22.4621 19.7905 21.9554 20.0021 21.4465C20.0449 21.3546 20.079 21.2605 20.1132 21.1686C20.1709 21.0061 20.2308 20.8543 20.2735 20.7025C20.3163 20.5742 20.3504 20.4395 20.3846 20.3134C20.4851 19.8815 20.5278 19.424 20.5278 18.9493C20.5278 18.7633 20.5193 18.5688 20.5022 18.3828C20.4936 18.1797 20.468 17.9765 20.4423 17.7734C20.4252 17.5938 20.3932 17.4164 20.359 17.2304C20.3163 16.9588 20.2564 16.6895 20.188 16.4179L20.1645 16.3153C20.1132 16.1293 20.0705 15.9518 20.0107 15.7658C19.8418 15.1821 19.6474 14.6134 19.4422 14.0811C19.3674 13.8694 19.282 13.6663 19.1965 13.4632C19.0704 13.1575 18.9422 12.8795 18.8247 12.6165C18.7649 12.4968 18.7136 12.3878 18.6623 12.2766C18.6046 12.1504 18.5448 12.0243 18.4849 11.9046C18.4422 11.8127 18.393 11.7271 18.3588 11.6416L17.9934 10.966C17.9421 10.874 18.0276 10.765 18.128 10.7928L20.4146 11.4128H20.421C20.4252 11.4128 20.4274 11.415 20.4295 11.415L20.7308 11.4983L21.062 11.5924L21.1838 11.6266V10.2669C21.1838 9.61048 21.7095 9.07812 22.3591 9.07812C22.6839 9.07812 22.9788 9.21068 23.1904 9.42661C23.4019 9.64257 23.5344 9.93761 23.5344 10.2669V12.2852L23.778 12.3535C23.7973 12.36 23.8165 12.3685 23.8336 12.3813C23.8934 12.4263 23.9789 12.4925 24.0879 12.5738C24.1734 12.6422 24.2652 12.7256 24.3764 12.8111C24.5964 12.9885 24.8593 13.2173 25.1478 13.4803C25.2247 13.5466 25.2995 13.615 25.3679 13.6834C25.7397 14.0298 26.1564 14.436 26.5539 14.885C26.665 15.0111 26.774 15.1394 26.8851 15.2741C26.9962 15.4109 27.1138 15.5456 27.2163 15.6803C27.3509 15.8599 27.4962 16.0459 27.6223 16.2405C27.6821 16.3324 27.7505 16.4265 27.8082 16.5184C27.9706 16.7643 28.1138 17.0187 28.2506 17.2731C28.3083 17.3907 28.3681 17.519 28.4194 17.6451C28.5711 17.9851 28.6908 18.3314 28.7677 18.6778C28.7912 18.7526 28.8083 18.8339 28.8169 18.9066V18.9237C28.8425 19.0263 28.8511 19.1353 28.8596 19.2465C28.8938 19.6014 28.8767 19.9563 28.7998 20.3134C28.7677 20.4652 28.725 20.6084 28.6737 20.7602C28.6224 20.9056 28.5711 21.0574 28.5049 21.2006C28.3767 21.4978 28.2249 21.795 28.0454 22.073C27.9877 22.1756 27.9193 22.2846 27.851 22.3873C27.7762 22.4963 27.6992 22.5989 27.6309 22.6994C27.5368 22.8277 27.4364 22.9624 27.3338 23.0821C27.242 23.2083 27.1479 23.3344 27.0454 23.4456C26.9022 23.6145 26.7654 23.7748 26.6222 23.9288C26.5368 24.0292 26.4449 24.1319 26.3508 24.2238C26.259 24.3264 26.1649 24.4183 26.0795 24.5039C25.9363 24.6471 25.8166 24.7583 25.7162 24.8502L25.4812 25.0662C25.447 25.0961 25.4021 25.1132 25.3551 25.1132H23.5344V27.4501H25.8252C26.338 27.4501 26.8253 27.2683 27.2185 26.9348C27.3531 26.8172 27.9407 26.3084 28.6352 25.5408C28.6587 25.5151 28.6887 25.4959 28.7228 25.4874L35.0502 23.6572C35.1678 23.623 35.2874 23.7128 35.2874 23.8368Z" fill="white"/>
<path d="M62.7745 31.5511C60.8943 31.5511 59.1659 31.1295 57.5897 30.2864C56.0323 29.4432 54.7881 28.2702 53.8576 26.7672C52.9461 25.2459 52.4902 23.5413 52.4902 21.6534C52.4902 19.7655 52.9461 18.07 53.8576 16.5671C54.7881 15.0641 56.0323 13.891 57.5897 13.0479C59.1659 12.2048 60.8943 11.7832 62.7745 11.7832C64.6548 11.7832 66.3736 12.2048 67.931 13.0479C69.5076 13.891 70.7418 15.0641 71.6345 16.5671C72.5463 18.07 73.0018 19.7655 73.0018 21.6534C73.0018 23.5413 72.5463 25.2459 71.6345 26.7672C70.7231 28.2702 69.4884 29.4432 67.931 30.2864C66.3736 31.1295 64.6548 31.5511 62.7745 31.5511ZM62.7745 27.2621C64.3698 27.2621 65.6423 26.7488 66.592 25.7224C67.5608 24.696 68.045 23.3397 68.045 21.6534C68.045 19.9488 67.5608 18.5925 66.592 17.5843C65.6423 16.5579 64.3698 16.0447 62.7745 16.0447C61.1601 16.0447 59.8689 16.5488 58.9001 17.5568C57.9504 18.5649 57.4758 19.9304 57.4758 21.6534C57.4758 23.358 57.9504 24.7235 58.9001 25.7499C59.8689 26.758 61.1601 27.2621 62.7745 27.2621Z" fill="#898989"/>
<path d="M80.5839 18.1893C81.0586 17.4745 81.7138 16.8971 82.5495 16.4572C83.3852 16.0173 84.3631 15.7974 85.4838 15.7974C86.7941 15.7974 87.9813 16.1181 89.045 16.7596C90.1082 17.4012 90.9439 18.3176 91.5517 19.509C92.1786 20.7004 92.4918 22.0842 92.4918 23.6605C92.4918 25.2368 92.1786 26.6298 91.5517 27.8396C90.9439 29.031 90.1082 29.9565 89.045 30.6164C87.9813 31.2579 86.7941 31.5787 85.4838 31.5787C84.3823 31.5787 83.4043 31.3587 82.5495 30.9188C81.7138 30.4789 81.0586 29.9108 80.5839 29.2142V35.9227H75.7124V16.0173H80.5839V18.1893ZM87.535 23.6605C87.535 22.4875 87.193 21.571 86.5092 20.9112C85.8444 20.233 85.0183 19.8939 84.0308 19.8939C83.0624 19.8939 82.2362 20.233 81.5524 20.9112C80.8876 21.5893 80.5552 22.515 80.5552 23.688C80.5552 24.8611 80.8876 25.7867 81.5524 26.4649C82.2362 27.1431 83.0624 27.4821 84.0308 27.4821C84.9996 27.4821 85.8257 27.1431 86.5092 26.4649C87.193 25.7684 87.535 24.8336 87.535 23.6605Z" fill="#898989"/>
<path d="M110.032 23.4406C110.032 23.8805 110.004 24.3387 109.947 24.8153H98.9219C98.9981 25.7684 99.3113 26.5015 99.8621 27.0147C100.432 27.5096 101.125 27.7571 101.942 27.7571C103.157 27.7571 104.002 27.2622 104.477 26.2724H109.662C109.396 27.2805 108.912 28.1878 108.209 28.9943C107.526 29.8008 106.661 30.4331 105.617 30.8914C104.572 31.3495 103.404 31.5787 102.113 31.5787C100.556 31.5787 99.169 31.2579 97.9535 30.6164C96.7381 29.9749 95.7884 29.0584 95.1045 27.867C94.421 26.6757 94.0791 25.2827 94.0791 23.688C94.0791 22.0934 94.4115 20.7004 95.0762 19.509C95.7597 18.3176 96.7093 17.4012 97.9248 16.7596C99.1403 16.1181 100.536 15.7974 102.113 15.7974C103.651 15.7974 105.019 16.109 106.215 16.7322C107.412 17.3553 108.342 18.2443 109.007 19.399C109.691 20.5538 110.032 21.901 110.032 23.4406ZM105.047 22.2034C105.047 21.3969 104.762 20.7554 104.192 20.2788C103.623 19.8023 102.91 19.564 102.056 19.564C101.239 19.564 100.546 19.7931 99.976 20.2513C99.4253 20.7096 99.0833 21.3602 98.9506 22.2034H105.047Z" fill="#898989"/>
<path d="M122.289 15.8521C124.15 15.8521 125.631 16.4386 126.733 17.6116C127.853 18.7663 128.414 20.361 128.414 22.3955V31.3584H123.57V23.0278C123.57 22.0014 123.295 21.2041 122.744 20.6359C122.193 20.0677 121.453 19.7836 120.522 19.7836C119.591 19.7836 118.851 20.0677 118.3 20.6359C117.749 21.2041 117.474 22.0014 117.474 23.0278V31.3584H112.603V16.017H117.474V18.0515C117.968 17.3733 118.633 16.8418 119.468 16.4569C120.304 16.0537 121.244 15.8521 122.289 15.8521Z" fill="#898989"/>
<path d="M139.035 31.5511C137.573 31.5511 136.262 31.322 135.103 30.8637C133.945 30.4055 133.014 29.7273 132.312 28.8292C131.628 27.9311 131.267 26.8497 131.229 25.585H136.414C136.49 26.2998 136.746 26.8497 137.183 27.2346C137.62 27.6012 138.19 27.7845 138.893 27.7845C139.614 27.7845 140.184 27.6286 140.602 27.3171C141.02 26.9872 141.229 26.5381 141.229 25.9699C141.229 25.4933 141.058 25.0993 140.716 24.7876C140.393 24.476 139.985 24.2195 139.491 24.0179C139.016 23.8162 138.332 23.5871 137.44 23.3305C136.148 22.9456 135.094 22.5607 134.277 22.1758C133.461 21.7909 132.758 21.2226 132.169 20.4712C131.581 19.7197 131.286 18.7391 131.286 17.5294C131.286 15.7331 131.96 14.3309 133.309 13.3228C134.657 12.2964 136.414 11.7832 138.579 11.7832C140.782 11.7832 142.558 12.2964 143.906 13.3228C145.255 14.3309 145.977 15.7423 146.072 17.5568H140.801C140.763 16.9337 140.526 16.4479 140.089 16.0997C139.652 15.7331 139.092 15.5498 138.408 15.5498C137.819 15.5498 137.345 15.7056 136.984 16.0172C136.623 16.3105 136.442 16.7412 136.442 17.3094C136.442 17.9326 136.746 18.4183 137.354 18.7665C137.962 19.1148 138.911 19.4906 140.203 19.8938C141.495 20.3154 142.539 20.7186 143.337 21.1035C144.154 21.4884 144.856 22.0475 145.445 22.7806C146.034 23.5138 146.328 24.4577 146.328 25.6125C146.328 26.7122 146.034 27.7111 145.445 28.6092C144.875 29.5074 144.04 30.2222 142.938 30.7538C141.837 31.2853 140.535 31.5511 139.035 31.5511Z" fill="#898989"/>
<path d="M164.311 23.4406C164.311 23.8805 164.282 24.3387 164.225 24.8153H153.2C153.276 25.7684 153.59 26.5015 154.14 27.0147C154.71 27.5096 155.404 27.7571 156.22 27.7571C157.436 27.7571 158.281 27.2622 158.756 26.2724H163.94C163.675 27.2805 163.19 28.1878 162.488 28.9943C161.804 29.8008 160.94 30.4331 159.895 30.8914C158.851 31.3495 157.682 31.5787 156.391 31.5787C154.834 31.5787 153.447 31.2579 152.232 30.6164C151.016 29.9749 150.067 29.0584 149.383 27.867C148.699 26.6757 148.357 25.2827 148.357 23.688C148.357 22.0934 148.69 20.7004 149.355 19.509C150.038 18.3176 150.988 17.4012 152.203 16.7596C153.419 16.1181 154.815 15.7974 156.391 15.7974C157.93 15.7974 159.297 16.109 160.494 16.7322C161.69 17.3553 162.621 18.2443 163.285 19.399C163.969 20.5538 164.311 21.901 164.311 23.4406ZM159.326 22.2034C159.326 21.3969 159.041 20.7554 158.471 20.2788C157.901 19.8023 157.189 19.564 156.334 19.564C155.518 19.564 154.824 19.7931 154.254 20.2513C153.704 20.7096 153.362 21.3602 153.229 22.2034H159.326Z" fill="#898989"/>
<path d="M165.912 23.6605C165.912 22.0842 166.216 20.7004 166.824 19.509C167.45 18.3176 168.296 17.4012 169.359 16.7596C170.423 16.1181 171.61 15.7974 172.921 15.7974C174.041 15.7974 175.019 16.0173 175.855 16.4572C176.709 16.8971 177.364 17.4745 177.82 18.1893V16.0173H182.692V31.3587H177.82V29.1867C177.346 29.9016 176.681 30.4789 175.826 30.9188C174.99 31.3587 174.013 31.5787 172.892 31.5787C171.6 31.5787 170.423 31.2579 169.359 30.6164C168.296 29.9565 167.45 29.031 166.824 27.8396C166.216 26.6298 165.912 25.2368 165.912 23.6605ZM177.82 23.688C177.82 22.515 177.478 21.5893 176.795 20.9112C176.13 20.233 175.313 19.8939 174.345 19.8939C173.376 19.8939 172.55 20.233 171.866 20.9112C171.202 21.571 170.869 22.4875 170.869 23.6605C170.869 24.8336 171.202 25.7684 171.866 26.4649C172.55 27.1431 173.376 27.4821 174.345 27.4821C175.313 27.4821 176.13 27.1431 176.795 26.4649C177.478 25.7867 177.82 24.8611 177.82 23.688Z" fill="#898989"/>
</svg>
