<svg width="167" height="43" viewBox="0 0 167 43" fill="none" xmlns="http://www.w3.org/2000/svg">
<path d="M48.0151 24.7019C48.0151 24.9942 47.7693 25.2403 47.462 25.2403H37.275C37.5362 27.7627 39.4261 30.0697 42.0996 30.0697C43.928 30.0697 45.2801 29.3776 46.2942 27.9165C46.4018 27.7627 46.5554 27.655 46.7398 27.655C47.0317 27.655 47.2469 27.8703 47.2469 28.1625C47.2469 28.2702 47.2161 28.3471 47.17 28.424C46.1406 30.2081 44.0971 31.0848 42.0996 31.0848C38.6732 31.0848 36.2148 28.0087 36.2148 24.7327C36.2148 21.4413 38.6579 18.3806 42.0996 18.3806C45.526 18.3806 47.9997 21.4259 48.0151 24.7019V24.7019ZM46.9242 24.2252C46.7091 21.7028 44.7731 19.3957 42.0996 19.3957C39.4261 19.3957 37.5362 21.7028 37.275 24.2252H46.9242ZM60.3839 18.6267C60.6758 18.6267 60.8909 18.8881 60.8909 19.1342C60.8909 19.4265 60.6758 19.6418 60.3839 19.6418H57.6489V30.3927C57.6489 30.6542 57.4338 30.9003 57.1419 30.9003C56.8499 30.9003 56.6348 30.6388 56.6348 30.3927V19.6418H54.0074C53.7155 19.6418 53.5004 19.4265 53.5004 19.1342C53.5004 18.8728 53.7155 18.6267 54.0074 18.6267H56.6348V14.7047C56.6348 14.4432 56.8346 14.1971 57.0958 14.1663C57.4184 14.1356 57.6643 14.3663 57.6643 14.6739V18.6267H60.3839ZM77.0702 23.8253V30.3312C77.0702 30.6234 76.809 30.8387 76.5631 30.8387C76.2712 30.8387 76.0561 30.6234 76.0561 30.3312V23.8253C76.0561 21.6259 74.8115 19.4418 72.3685 19.4418C69.2341 19.4418 67.8819 22.1796 68.0663 24.9942C68.0663 25.0711 68.0971 25.3941 68.0971 25.4402V30.3158C68.0971 30.5773 67.8973 30.8234 67.6361 30.8541C67.3134 30.8849 67.0676 30.6542 67.0676 30.3466V8.95238C67.0676 8.69091 67.2827 8.44482 67.5746 8.44482C67.8666 8.44482 68.0817 8.70629 68.0817 8.95238V21.0414C68.9575 19.4726 70.5247 18.4114 72.3531 18.4114C75.3647 18.4114 77.0702 21.0414 77.0702 23.8253ZM95.3698 24.7019C95.3698 24.9942 95.124 25.2403 94.8167 25.2403H84.6297C84.8909 27.7627 86.7808 30.0697 89.4543 30.0697C91.2827 30.0697 92.6348 29.3776 93.6489 27.9165C93.7565 27.7627 93.9101 27.655 94.0945 27.655C94.3864 27.655 94.6015 27.8703 94.6015 28.1625C94.6015 28.2702 94.5708 28.3471 94.5247 28.424C93.4953 30.2081 91.4517 31.0848 89.4543 31.0848C86.0279 31.0848 83.5695 28.0087 83.5695 24.7327C83.5695 21.4413 86.0126 18.3806 89.4543 18.3806C92.8653 18.3806 95.3391 21.4259 95.3698 24.7019V24.7019ZM94.2635 24.2252C94.0484 21.7028 92.1124 19.3957 89.4389 19.3957C86.7808 19.3957 84.8756 21.7028 84.6143 24.2252H94.2635ZM107.877 19.1035C107.877 19.4265 107.692 19.611 107.401 19.6572C104.404 20.1032 103.052 22.5487 103.052 25.3941V30.2697C103.052 30.5311 102.853 30.7772 102.591 30.808C102.269 30.8387 102.023 30.608 102.023 30.3004V19.1804C102.023 18.9189 102.223 18.6728 102.484 18.6421C102.806 18.6113 103.052 18.842 103.052 19.1496V21.4105C103.897 19.9802 105.572 18.6267 107.324 18.6267C107.585 18.6267 107.877 18.8112 107.877 19.1035V19.1035ZM124.64 24.7019C124.64 24.9942 124.394 25.2403 124.087 25.2403H113.9C114.161 27.7627 116.051 30.0697 118.724 30.0697C120.553 30.0697 121.905 29.3776 122.919 27.9165C123.027 27.7627 123.18 27.655 123.365 27.655C123.657 27.655 123.872 27.8703 123.872 28.1625C123.872 28.2702 123.841 28.3471 123.795 28.424C122.765 30.2081 120.722 31.0848 118.724 31.0848C115.298 31.0848 112.84 28.0087 112.84 24.7327C112.84 21.4413 115.283 18.3806 118.724 18.3806C122.151 18.3806 124.625 21.4259 124.64 24.7019V24.7019ZM123.549 24.2252C123.334 21.7028 121.398 19.3957 118.724 19.3957C116.051 19.3957 114.161 21.7028 113.9 24.2252H123.549ZM141.111 19.2265V30.3927C141.111 30.6849 140.85 30.9003 140.604 30.9003C140.312 30.9003 140.097 30.6849 140.097 30.3927V28.2702C139.252 29.9467 137.762 31.1617 135.856 31.1617C132.829 31.1617 131.155 28.5317 131.155 25.7478V19.2111C131.155 18.9497 131.37 18.7036 131.662 18.7036C131.954 18.7036 132.169 18.965 132.169 19.2111V25.7478C132.169 27.9472 133.413 30.1312 135.856 30.1312C139.283 30.1312 140.097 26.9167 140.097 23.3639V19.1958C140.097 18.8881 140.42 18.5805 140.788 18.719C140.973 18.8112 141.111 19.0112 141.111 19.2265V19.2265ZM166.909 23.7791V30.3158C166.909 30.608 166.648 30.8234 166.402 30.8234C166.11 30.8234 165.895 30.608 165.895 30.3158V23.7791C165.895 21.5797 164.65 19.4265 162.207 19.4265C159.134 19.4265 157.966 22.7179 157.966 25.271V30.3158C157.966 30.608 157.705 30.8234 157.459 30.8234C157.167 30.8234 156.952 30.608 156.952 30.3158V23.7791C156.952 21.5797 155.708 19.4265 153.265 19.4265C150.161 19.4265 148.886 21.8719 148.993 25.1326C148.993 25.2095 149.024 25.3479 148.993 25.3941V30.3004C148.993 30.5619 148.794 30.808 148.532 30.8387C148.21 30.8695 147.964 30.6388 147.964 30.3312V19.1804C147.964 18.9189 148.164 18.6728 148.425 18.6421C148.748 18.6113 148.993 18.842 148.993 19.1496V21.0106C149.869 19.4418 151.436 18.4114 153.265 18.4114C155.339 18.4114 156.952 19.7341 157.613 21.6566C158.458 19.7494 160.102 18.4114 162.207 18.4114C165.203 18.4114 166.909 21.0106 166.909 23.7791Z" fill="#898989"/>
<path opacity="0.6" d="M13.7207 29.5001L26.4889 21.9483L13.7207 16.1499L0.967773 21.9483L13.7207 29.5001Z" fill="#898989"/>
<path opacity="0.45" d="M13.7207 16.1502V0.754395L0.967773 21.9486L13.7207 29.5004V16.1502Z" fill="#898989"/>
<path opacity="0.8" d="M13.7207 29.5004L26.489 21.9486L13.7207 0.754395V16.1502V29.5004Z" fill="#898989"/>
<path opacity="0.45" d="M13.7207 31.9148L0.967773 24.3784L13.7207 42.3735V31.9148Z" fill="#898989"/>
<path opacity="0.8" d="M26.489 24.3784L13.7207 31.9148V42.3735L26.489 24.3784Z" fill="#898989"/>
</svg>
