<svg width="60" height="60" viewBox="0 0 60 60" fill="none" xmlns="http://www.w3.org/2000/svg">
<circle cx="30" cy="30" r="25" fill="black"/>
<g style="mix-blend-mode:hard-light" filter="url(#filter0_f_1_546)">
<circle cx="30" cy="30" r="24.3229" stroke="url(#paint0_linear_1_546)" stroke-width="1.35417"/>
</g>
<g style="mix-blend-mode:hard-light" filter="url(#filter1_f_1_546)">
<circle cx="30" cy="30" r="24.1146" stroke="url(#paint1_linear_1_546)" stroke-width="1.77083"/>
</g>
<g style="mix-blend-mode:hard-light" filter="url(#filter2_ddi_1_546)">
<circle cx="30" cy="30" r="24.3229" stroke="url(#paint2_linear_1_546)" stroke-width="1.35417"/>
</g>
<g filter="url(#filter3_f_1_546)">
<circle cx="30" cy="30" r="24.5833" stroke="url(#paint3_linear_1_546)" stroke-width="0.833333"/>
</g>
<g filter="url(#filter4_f_1_546)">
<circle cx="30" cy="30" r="24.7917" stroke="white" stroke-width="0.416667"/>
</g>
<path fill-rule="evenodd" clip-rule="evenodd" d="M45 30C45 38.2837 38.2837 45 30 45C21.7163 45 15 38.2837 15 30C15 21.7163 21.7163 15 30 15C38.2837 15 45 21.7163 45 30ZM30.5375 26.0737C29.0788 26.68 26.1625 27.9363 21.79 29.8413C21.08 30.1238 20.7075 30.4 20.6737 30.67C20.6162 31.1275 21.1887 31.3075 21.9662 31.5513C22.0725 31.585 22.1825 31.6187 22.295 31.6562C23.0613 31.905 24.0913 32.1963 24.6263 32.2075C25.1125 32.2175 25.655 32.0175 26.2537 31.6075C30.3387 28.8488 32.4475 27.455 32.58 27.425C32.6737 27.4038 32.8038 27.3762 32.8913 27.455C32.9788 27.5325 32.97 27.68 32.9613 27.72C32.9038 27.9613 30.6612 30.0475 29.4987 31.1275C29.1362 31.4638 28.88 31.7025 28.8275 31.7575C28.71 31.8787 28.59 31.995 28.475 32.1063C27.7625 32.7913 27.23 33.3062 28.505 34.1462C29.1175 34.55 29.6075 34.8837 30.0962 35.2162C30.63 35.58 31.1625 35.9425 31.8525 36.395C32.0275 36.51 32.195 36.6288 32.3587 36.745C32.98 37.1888 33.5388 37.5863 34.2288 37.5238C34.6288 37.4863 35.0437 37.11 35.2537 35.9862C35.75 33.3287 36.7275 27.5738 36.9538 25.2013C36.9675 25.0043 36.9591 24.8063 36.9287 24.6112C36.9105 24.4536 36.8339 24.3086 36.7138 24.205C36.535 24.0587 36.2575 24.0275 36.1325 24.03C35.5687 24.04 34.7038 24.3412 30.5375 26.0737Z" fill="white"/>
<defs>
<filter id="filter0_f_1_546" x="0.6875" y="0.6875" width="58.625" height="58.625" filterUnits="userSpaceOnUse" color-interpolation-filters="sRGB">
<feFlood flood-opacity="0" result="BackgroundImageFix"/>
<feBlend mode="normal" in="SourceGraphic" in2="BackgroundImageFix" result="shape"/>
<feGaussianBlur stdDeviation="2.15625" result="effect1_foregroundBlur_1_546"/>
</filter>
<filter id="filter1_f_1_546" x="3.5625" y="3.5625" width="52.875" height="52.875" filterUnits="userSpaceOnUse" color-interpolation-filters="sRGB">
<feFlood flood-opacity="0" result="BackgroundImageFix"/>
<feBlend mode="normal" in="SourceGraphic" in2="BackgroundImageFix" result="shape"/>
<feGaussianBlur stdDeviation="0.71875" result="effect1_foregroundBlur_1_546"/>
</filter>
<filter id="filter2_ddi_1_546" x="3.13125" y="4.56875" width="53.7375" height="53.7375" filterUnits="userSpaceOnUse" color-interpolation-filters="sRGB">
<feFlood flood-opacity="0" result="BackgroundImageFix"/>
<feColorMatrix in="SourceAlpha" type="matrix" values="0 0 0 0 0 0 0 0 0 0 0 0 0 0 0 0 0 0 127 0" result="hardAlpha"/>
<feOffset dy="1.35417"/>
<feGaussianBlur stdDeviation="0.520833"/>
<feColorMatrix type="matrix" values="0 0 0 0 0.15 0 0 0 0 0 0 0 0 0 0 0 0 0 0.7 0"/>
<feBlend mode="multiply" in2="BackgroundImageFix" result="effect1_dropShadow_1_546"/>
<feColorMatrix in="SourceAlpha" type="matrix" values="0 0 0 0 0 0 0 0 0 0 0 0 0 0 0 0 0 0 127 0" result="hardAlpha"/>
<feOffset dy="1.4375"/>
<feGaussianBlur stdDeviation="0.934375"/>
<feColorMatrix type="matrix" values="0 0 0 0 0.8 0 0 0 0 0.19 0 0 0 0 0.19 0 0 0 1 0"/>
<feBlend mode="color-dodge" in2="effect1_dropShadow_1_546" result="effect2_dropShadow_1_546"/>
<feBlend mode="normal" in="SourceGraphic" in2="effect2_dropShadow_1_546" result="shape"/>
<feColorMatrix in="SourceAlpha" type="matrix" values="0 0 0 0 0 0 0 0 0 0 0 0 0 0 0 0 0 0 127 0" result="hardAlpha"/>
<feOffset dx="-0.135417" dy="0.270833"/>
<feGaussianBlur stdDeviation="0.0677083"/>
<feComposite in2="hardAlpha" operator="arithmetic" k2="-1" k3="1"/>
<feColorMatrix type="matrix" values="0 0 0 0 1 0 0 0 0 1 0 0 0 0 1 0 0 0 0.5 0"/>
<feBlend mode="normal" in2="shape" result="effect3_innerShadow_1_546"/>
</filter>
<filter id="filter3_f_1_546" x="4.79167" y="4.79167" width="50.4167" height="50.4167" filterUnits="userSpaceOnUse" color-interpolation-filters="sRGB">
<feFlood flood-opacity="0" result="BackgroundImageFix"/>
<feBlend mode="normal" in="SourceGraphic" in2="BackgroundImageFix" result="shape"/>
<feGaussianBlur stdDeviation="0.104167" result="effect1_foregroundBlur_1_546"/>
</filter>
<filter id="filter4_f_1_546" x="4.86111" y="4.86111" width="50.2778" height="50.2778" filterUnits="userSpaceOnUse" color-interpolation-filters="sRGB">
<feFlood flood-opacity="0" result="BackgroundImageFix"/>
<feBlend mode="normal" in="SourceGraphic" in2="BackgroundImageFix" result="shape"/>
<feGaussianBlur stdDeviation="0.0694444" result="effect1_foregroundBlur_1_546"/>
</filter>
<linearGradient id="paint0_linear_1_546" x1="5" y1="30" x2="55" y2="30" gradientUnits="userSpaceOnUse">
<stop stop-color="#AC4A9D"/>
<stop offset="1" stop-color="#1DB5D6"/>
</linearGradient>
<linearGradient id="paint1_linear_1_546" x1="5" y1="30" x2="55" y2="30" gradientUnits="userSpaceOnUse">
<stop stop-color="#AC4A9D"/>
<stop offset="1" stop-color="#1DB5D6"/>
</linearGradient>
<linearGradient id="paint2_linear_1_546" x1="5" y1="30" x2="55" y2="30" gradientUnits="userSpaceOnUse">
<stop stop-color="#AC4A9D"/>
<stop offset="1" stop-color="#1DB5D6"/>
</linearGradient>
<linearGradient id="paint3_linear_1_546" x1="5" y1="30" x2="55" y2="30" gradientUnits="userSpaceOnUse">
<stop stop-color="#AC4A9D"/>
<stop offset="1" stop-color="#1DB5D6"/>
</linearGradient>
</defs>
</svg>
